<?xml version="1.0" encoding="UTF-8"?>
<svg version="1.1" xmlns="http://www.w3.org/2000/svg" width="318" height="359">
<path d="M0 0 C2.46301228 1.52866429 4.40522485 2.93778117 6.5625 4.8125 C7.78074727 5.82222144 8.99951315 6.83131744 10.21875 7.83984375 C10.83878906 8.36175293 11.45882812 8.88366211 12.09765625 9.42138672 C15.74869993 12.45111572 19.53308399 15.31393278 23.29321289 18.20629883 C32.78251854 25.60967208 32.78251854 25.60967208 33.546875 30.49609375 C32.91645354 34.53529411 31.95160004 36.03996521 29.25 39.0625 C28.4353125 39.99578125 27.620625 40.9290625 26.78125 41.890625 C26.11222656 42.63602539 26.11222656 42.63602539 25.4296875 43.39648438 C23.35523557 45.72315792 21.34055032 48.09950642 19.31933594 50.47241211 C17.35051739 52.78090392 15.36774236 55.07720421 13.38476562 57.37353516 C11.98711349 59.01513574 10.62646438 60.68330997 9.265625 62.35546875 C6.28166958 65.83846499 5.76020168 65.93869341 1.125 66.3125 C-1.82968653 66.25340627 -2.89058393 66.06564964 -5.5 64.5 C-7.57740712 61.0376548 -7.72288794 57.89219962 -7 54 C-5.51457671 51.32288119 -3.59993879 49.21344899 -1.5 47 C-0.97535156 46.41605469 -0.45070313 45.83210938 0.08984375 45.23046875 C1.37571341 43.8043224 2.68552782 42.39982752 4 41 C-6.14666111 41.94028533 -14.63797508 43.81200471 -24 48 C-24.66821777 48.29181152 -25.33643555 48.58362305 -26.02490234 48.88427734 C-39.70156141 54.88281202 -51.54149473 62.37561191 -63 72 C-63.76054688 72.62519531 -64.52109375 73.25039062 -65.3046875 73.89453125 C-71.32737888 79.01069296 -76.16123592 84.77272102 -81 91 C-81.73089844 91.89203125 -82.46179688 92.7840625 -83.21484375 93.703125 C-106.05520727 122.44425027 -114.89172295 160.91252577 -111 197 C-106.00192632 234.35730796 -87.26221344 268.07515457 -58 292 C-43.3411435 303.04953921 -27.25597414 310.93709017 -10 317 C-10 322.61 -10 328.22 -10 334 C-36.91557534 328.62226267 -60.31513451 313.61912437 -80 295 C-81.30710937 293.78957031 -81.30710937 293.78957031 -82.640625 292.5546875 C-109.1854244 267.14752236 -127.2620083 228.64097963 -128.26394653 191.70768738 C-128.32699459 187.908846 -128.33095346 184.11174159 -128.3125 180.3125 C-128.31034485 179.51497314 -128.3081897 178.71744629 -128.30596924 177.89575195 C-128.25590389 166.36046354 -127.96507502 155.21027465 -125 144 C-124.80132324 143.21882812 -124.60264648 142.43765625 -124.39794922 141.6328125 C-114.13493449 102.1490345 -89.87634058 66.08216851 -54.70263672 44.59667969 C-49.55027443 41.57489747 -44.30204547 38.748962 -39 36 C-37.99582031 35.47535156 -36.99164063 34.95070312 -35.95703125 34.41015625 C-33.65399155 33.23542747 -31.33562107 32.10814138 -29 31 C-28.29359375 30.64421875 -27.5871875 30.2884375 -26.859375 29.921875 C-18.39156008 25.84026637 -9.25895491 24.24774329 0 23 C-0.78246094 22.37351562 -1.56492187 21.74703125 -2.37109375 21.1015625 C-3.38300781 20.28429687 -4.39492187 19.46703125 -5.4375 18.625 C-6.95150391 17.40683594 -6.95150391 17.40683594 -8.49609375 16.1640625 C-11.85464135 13.26135521 -11.93913079 12.62898179 -12.375 8.125 C-12.32070848 4.80718477 -12.15676121 4.19001359 -9.9375 1.5 C-6.22991743 -0.39323366 -4.13758579 -0.43804629 0 0 Z " fill="#000000" transform="translate(128,0)"/>
<path d="M0 0 C16.58695083 5.15322744 31.81061013 11.89921713 46 22 C46.84377197 22.60038086 46.84377197 22.60038086 47.70458984 23.21289062 C82.61413147 48.4822653 104.68651392 85.68879493 112.11328125 127.9609375 C113.32410827 136.19444159 113.35283432 144.38337543 113.3125 152.6875 C113.30926727 153.88379028 113.30926727 153.88379028 113.30596924 155.10424805 C113.25590389 166.63953646 112.96507502 177.78972535 110 189 C109.70198486 190.17175781 109.70198486 190.17175781 109.39794922 191.3671875 C98.89805247 231.76229589 73.78979458 268.31927546 37.48046875 289.71875 C33.7304283 291.86225577 29.93207113 293.90232867 26.1015625 295.89794922 C24.15639042 296.9179895 22.23342094 297.97036629 20.3125 299.03515625 C9.70027592 304.715108 -1.10465074 307.43441855 -13 309 C-12.21753906 309.62648438 -11.43507812 310.25296875 -10.62890625 310.8984375 C-9.61699219 311.71570313 -8.60507813 312.53296875 -7.5625 313.375 C-6.55316406 314.18710937 -5.54382813 314.99921875 -4.50390625 315.8359375 C-1.14535865 318.73864479 -1.06086921 319.37101821 -0.625 323.875 C-0.67929152 327.19281523 -0.84323879 327.80998641 -3.0625 330.5 C-6.77008257 332.39323366 -8.86241421 332.43804629 -13 332 C-15.46301228 330.47133571 -17.40522485 329.06221883 -19.5625 327.1875 C-20.78074727 326.17777856 -21.99951315 325.16868256 -23.21875 324.16015625 C-24.14880859 323.37729248 -24.14880859 323.37729248 -25.09765625 322.57861328 C-28.74869993 319.54888428 -32.53308399 316.68606722 -36.29321289 313.79370117 C-45.78251854 306.39032792 -45.78251854 306.39032792 -46.546875 301.50390625 C-45.91645354 297.46470589 -44.95160004 295.96003479 -42.25 292.9375 C-41.02796875 291.53757812 -41.02796875 291.53757812 -39.78125 290.109375 C-39.11222656 289.36397461 -39.11222656 289.36397461 -38.4296875 288.60351562 C-36.35523557 286.27684208 -34.34055032 283.90049358 -32.31933594 281.52758789 C-30.35051739 279.21909608 -28.36774236 276.92279579 -26.38476562 274.62646484 C-24.98711349 272.98486426 -23.62646438 271.31669003 -22.265625 269.64453125 C-19.28166958 266.16153501 -18.76020168 266.06130659 -14.125 265.6875 C-11.17031347 265.74659373 -10.10941607 265.93435036 -7.5 267.5 C-5.42259288 270.9623452 -5.27711206 274.10780038 -6 278 C-7.48542329 280.67711881 -9.40006121 282.78655101 -11.5 285 C-12.02464844 285.58394531 -12.54929688 286.16789062 -13.08984375 286.76953125 C-14.37571341 288.1956776 -15.68552782 289.60017248 -17 291 C6.34931433 290.466024 28.58252996 276.59097151 46 262 C46.58217285 261.51418457 47.1643457 261.02836914 47.76416016 260.52783203 C73.71148573 238.53396473 92.25451982 204.82711776 95.7890625 170.85400391 C97.03544122 153.9903844 97.24303608 136.44176481 93 120 C92.75056641 118.98655518 92.75056641 118.98655518 92.49609375 117.95263672 C86.65588488 94.55394805 75.3697363 73.67236783 59 56 C58.49597656 55.45214844 57.99195313 54.90429688 57.47265625 54.33984375 C41.29597772 36.95293989 21.72083254 26.11499223 0 17 C0 11.39 0 5.78 0 0 Z " fill="#000000" transform="translate(205,27)"/>
<path d="M0 0 C1.12481781 -0.0159874 2.24963562 -0.03197479 3.40853882 -0.04844666 C5.23199326 -0.05649071 5.23199326 -0.05649071 7.09228516 -0.06469727 C8.96589218 -0.07823997 8.96589218 -0.07823997 10.87734985 -0.09205627 C13.52205823 -0.10657698 16.16633411 -0.11624508 18.81103516 -0.11914062 C22.19303313 -0.12452225 25.57383534 -0.16219221 28.95549583 -0.20788479 C32.18852111 -0.24485761 35.42157687 -0.24617172 38.65478516 -0.25219727 C39.86637299 -0.27172958 41.07796082 -0.2912619 42.32626343 -0.31138611 C50.71667165 -0.26630289 50.71667165 -0.26630289 54.61889648 2.5637207 C55.24175537 3.46880371 55.86461426 4.37388672 56.50634766 5.30639648 C57.04557861 6.03673096 57.58480957 6.76706543 58.14038086 7.51953125 C58.84167114 8.62252563 58.84167114 8.62252563 59.55712891 9.74780273 C60.08733643 10.5736084 60.61754395 11.39941406 61.16381836 12.25024414 C61.70997803 13.11439941 62.2561377 13.97855469 62.81884766 14.86889648 C63.96399344 16.65970092 65.10982553 18.45006667 66.25634766 20.23999023 C67.08585937 21.53912354 67.08585937 21.53912354 67.93212891 22.86450195 C70.61475321 27.02573153 73.41004444 31.10847881 76.21337891 35.18920898 C77.50634766 37.30639648 77.50634766 37.30639648 77.50634766 39.30639648 C78.09864985 39.30363111 78.69095203 39.30086573 79.30120277 39.29801655 C93.72378033 39.23171773 108.14634427 39.18209695 122.5690403 39.15095997 C129.54380395 39.1355015 136.51846577 39.11443162 143.49316406 39.08007812 C150.22344743 39.04694433 156.95360313 39.02954558 163.68397141 39.02176476 C166.2524113 39.01621938 168.82084537 39.00539074 171.38924026 38.98920631 C174.985207 38.96744685 178.58073589 38.96442902 182.17675781 38.96582031 C183.23987183 38.95503448 184.30298584 38.94424866 185.39831543 38.93313599 C190.82917329 38.95589028 194.85969975 39.14130464 199.50634766 42.30639648 C201.07105998 45.43582114 201.20336723 48.91721872 200.50634766 52.30639648 C199.17420959 54.41853333 199.17420959 54.41853333 196.50634766 56.30639648 C192.80133028 56.8540677 189.13058532 56.69315208 185.39477539 56.58251953 C184.26093918 56.56555023 183.12710297 56.54858093 181.95890808 56.53109741 C179.49464899 56.49353287 177.03050418 56.44779499 174.56652641 56.39490318 C170.66061403 56.31753431 166.75592995 56.27581442 162.84938049 56.24604797 C161.50958511 56.23583583 160.16979 56.22558831 158.82999516 56.21530628 C157.82353654 56.20762413 157.82353654 56.20762413 156.79674542 56.19978678 C147.70706343 56.12691031 138.61928094 56.01780507 129.53149414 55.81640625 C122.73759368 55.66623651 115.94724006 55.60638329 109.15172005 55.59705544 C106.56747302 55.57787532 103.98325791 55.5278987 101.40023613 55.44605064 C88.23510239 54.49260409 88.23510239 54.49260409 76.36450386 58.96294212 C72.79959147 62.94442345 70.4865017 67.36418274 68.41202545 72.25836563 C67.14374288 75.12636333 65.4696793 77.67017438 63.72900391 80.27124023 C62.1257189 82.79345763 60.52401144 85.31575284 58.94189453 87.85131836 C58.15588867 89.08011719 58.15588867 89.08011719 57.35400391 90.33374023 C56.90033447 91.05295654 56.44666504 91.77217285 55.97924805 92.51318359 C53.70417915 95.28301304 51.52810579 96.20133604 47.97096252 96.5670929 C46.54130409 96.57400398 46.54130409 96.57400398 45.08276367 96.58105469 C43.45571251 96.59535271 43.45571251 96.59535271 41.79579163 96.60993958 C40.62906418 96.60902817 39.46233673 96.60811676 38.26025391 96.60717773 C37.05698959 96.61146286 35.85372528 96.61574799 34.61399841 96.62016296 C32.06957631 96.62590546 29.52513778 96.62640713 26.98071289 96.62207031 C23.08728027 96.61891144 19.19460814 96.64236806 15.30126953 96.66772461 C12.82926528 96.66999769 10.35725899 96.67070106 7.88525391 96.66967773 C6.72055069 96.67888748 5.55584747 96.68809723 4.35585022 96.69758606 C3.26799728 96.69135727 2.18014435 96.68512848 1.05932617 96.67871094 C0.10542496 96.67934036 -0.84847626 96.67996979 -1.83128357 96.68061829 C-5.74171096 96.13096972 -8.48264082 94.53407693 -10.98828125 91.49145508 C-11.59808838 90.48332764 -11.59808838 90.48332764 -12.22021484 89.45483398 C-12.92404297 88.31365112 -12.92404297 88.31365112 -13.64208984 87.14941406 C-14.12935547 86.33496826 -14.61662109 85.52052246 -15.11865234 84.68139648 C-16.17221854 82.96326048 -17.22693153 81.24582723 -18.28271484 79.52905273 C-18.81413086 78.65909668 -19.34554687 77.78914063 -19.89306641 76.89282227 C-22.77861174 72.22999932 -25.80723147 67.65923231 -28.83984375 63.09106445 C-30.09048611 61.18143528 -31.29534283 59.24918554 -32.49365234 57.30639648 C-32.92419922 56.6636377 -33.35474609 56.02087891 -33.79833984 55.35864258 C-35.47871154 52.57792945 -36.5907917 50.48914667 -36.32006836 47.19287109 C-34.39084674 40.53590684 -30.27441285 34.86300708 -26.43115234 29.18139648 C-25.76374023 28.17890869 -25.09632812 27.1764209 -24.40869141 26.14355469 C-23.06915371 24.13311949 -21.72563821 22.12532833 -20.37792969 20.12036133 C-18.69507988 17.60720677 -17.03517905 15.08141055 -15.38818359 12.54467773 C-14.50673963 11.19437393 -13.62523451 9.84411006 -12.74365234 8.49389648 C-12.35040771 7.88465332 -11.95716309 7.27541016 -11.55200195 6.64770508 C-8.24217519 1.63653815 -5.98164288 0.06423082 0 0 Z M-1.87646484 21.75952148 C-2.79623624 23.58537526 -3.66905946 25.4356298 -4.49365234 27.30639648 C-5.55899806 29.010302 -6.650133 30.69836876 -7.76708984 32.36889648 C-8.8034979 34.01312279 -9.83736768 35.65895187 -10.86865234 37.30639648 C-11.40103516 38.15073242 -11.93341797 38.99506836 -12.48193359 39.86499023 C-15.12716823 44.00636874 -15.12716823 44.00636874 -17.49365234 48.30639648 C-16.13279899 50.78651349 -14.7176685 53.125007 -13.18115234 55.49389648 C-12.78347656 56.12231445 -12.38580078 56.75073242 -11.97607422 57.39819336 C-11.07180026 58.81722905 -10.14171391 60.2199778 -9.19360352 61.61010742 C-7.8344558 63.76584882 -6.72700678 65.83878621 -5.6159668 68.11987305 C-1.8346817 75.44049597 -1.8346817 75.44049597 4.60092163 80.2494812 C10.56390598 81.87772587 16.55712642 81.84177782 22.69384766 81.68139648 C23.61676605 81.67899963 24.53968445 81.67660278 25.49057007 81.6741333 C33.08961929 81.5889699 40.36821107 81.42011921 46.81201172 77.07983398 C51.80140263 71.77092543 54.82284947 65.69270659 57.42675781 58.93823242 C58.38512307 56.60191912 59.38038542 54.87357581 60.89306641 52.87670898 C62.69782381 50.48259541 62.69782381 50.48259541 62.57666016 47.97436523 C60.94768169 43.91380942 58.70442594 40.3166687 56.38134766 36.61889648 C55.91986328 35.86672852 55.45837891 35.11456055 54.98291016 34.33959961 C54.02134187 32.78761784 53.03236365 31.25234011 52.01904297 29.73364258 C50.50634766 27.30639648 50.50634766 27.30639648 49.29833984 24.53930664 C47.66568129 21.29655286 46.42127783 19.50597155 43.50634766 17.30639648 C37.78360329 15.64911882 31.7493598 15.86946642 25.84570312 16.00268555 C23.00970534 16.05633297 20.18951344 16.00319375 17.35400391 15.93920898 C6.37842199 15.55060378 6.37842199 15.55060378 -1.87646484 21.75952148 Z " fill="#000000" transform="translate(77.49365234375,127.693603515625)"/>
<path d="M0 0 C6.102709 3.44429522 10.07437958 8.20932059 12.125 14.9375 C13.41617657 21.73947142 12.30951771 28.09384228 8.98828125 34.14453125 C4.78210221 40.14433619 -0.54509003 43.1305977 -7.5625 44.75 C-14.79160989 45.23194066 -20.64535548 43.6367546 -26.3125 39 C-31.55404006 33.88035622 -34.10483015 28.02561034 -34.41015625 20.63671875 C-33.91345274 13.62229598 -31.45927504 8.14677504 -26.5 3.1875 C-18.05558252 -2.60768847 -9.53362815 -4.24993062 0 0 Z M-15.6875 17.1875 C-17.56197755 19.84747321 -17.56197755 19.84747321 -17.1875 22.6875 C-16.43706118 25.14951065 -16.43706118 25.14951065 -14.3125 27 C-10.25988713 27.34490322 -8.76495824 27.30163882 -5.3125 25 C-4.21633904 22.68805807 -4.21633904 22.68805807 -4.3125 20 C-5.80852502 17.08829743 -5.80852502 17.08829743 -8.3125 15 C-11.98131603 14.08279599 -12.90087539 14.62087207 -15.6875 17.1875 Z " fill="#000000" transform="translate(111.3125,158)"/>
<path d="M0 0 C0.88134109 -0.00960754 1.76268219 -0.01921509 2.67073059 -0.02911377 C4.09575142 -0.03548859 4.09575142 -0.03548859 5.54956055 -0.04199219 C6.52990768 -0.04769226 7.51025482 -0.05339233 8.52030945 -0.05926514 C10.59572267 -0.06871323 12.67115088 -0.07524836 14.74658203 -0.07910156 C17.91359813 -0.08879775 21.07996264 -0.11981932 24.24682617 -0.15136719 C26.26440045 -0.1578984 28.28197936 -0.16314841 30.29956055 -0.16699219 C31.24350174 -0.17933899 32.18744293 -0.19168579 33.1599884 -0.20440674 C38.39035982 -0.18678561 42.12320869 0.17378304 46.6237793 3.16113281 C48.18849162 6.29055746 48.32079888 9.77195505 47.6237793 13.16113281 C45.61071187 15.63042844 44.39359258 16.99754601 41.23352051 17.66906738 C39.90592712 17.67384094 39.90592712 17.67384094 38.55151367 17.67871094 C37.54366821 17.69131958 36.53582275 17.70392822 35.49743652 17.71691895 C34.41506714 17.70882202 33.33269775 17.7007251 32.2175293 17.69238281 C31.10067749 17.69620972 29.98382568 17.70003662 28.83312988 17.70397949 C26.47280984 17.70670037 24.11245973 17.69932701 21.75219727 17.68261719 C18.13709355 17.66121165 14.52397737 17.6824146 10.90893555 17.70800781 C8.61596241 17.70536457 6.3229905 17.70023967 4.0300293 17.69238281 C2.40647522 17.7045282 2.40647522 17.7045282 0.75012207 17.71691895 C-0.25772339 17.7043103 -1.26556885 17.69170166 -2.30395508 17.67871094 C-3.18901733 17.67552856 -4.07407959 17.67234619 -4.98596191 17.66906738 C-8.14417905 16.99794019 -9.35755759 15.62261241 -11.3762207 13.16113281 C-12.10427021 10.42024053 -11.95065311 7.93092075 -11.3762207 5.16113281 C-8.2309199 0.93124553 -5.10293614 0.0449782 0 0 Z " fill="#000000" transform="translate(230.376220703125,198.8388671875)"/>
<path d="M0 0 C0.78375 0.04125 1.5675 0.0825 2.375 0.125 C0.375 2.125 0.375 2.125 -2.25 2.25 C-3.03375 2.20875 -3.8175 2.1675 -4.625 2.125 C-2.625 0.125 -2.625 0.125 0 0 Z " fill="#000000" transform="translate(165.625,272.875)"/>
</svg>
