<?xml version="1.0" encoding="UTF-8"?>
<svg version="1.1" xmlns="http://www.w3.org/2000/svg" width="512" height="512">
<path d="M0 0 C1.53988083 -0.00786278 1.53988083 -0.00786278 3.11087036 -0.0158844 C5.27068177 -0.02227389 7.43052812 -0.02100773 9.59033203 -0.01245117 C12.8668515 -0.00394767 16.14162121 -0.03273702 19.41796875 -0.06445312 C21.52864532 -0.06606577 23.63932493 -0.0654864 25.75 -0.0625 C26.71493378 -0.07373398 27.67986755 -0.08496796 28.67404175 -0.09654236 C40.09118679 0.01848485 50.33716217 4.24918673 58.72265625 12.0234375 C66.06846055 19.96737345 68.87538854 29.5107765 70.7578125 39.93359375 C70.96535156 40.99707031 71.17289062 42.06054688 71.38671875 43.15625 C72.60512096 49.56268742 73.48851397 55.93328345 74.0078125 62.43359375 C74.60134521 62.59214844 75.19487793 62.75070313 75.80639648 62.9140625 C85.07613091 65.4364968 94.87808648 68.96573837 103.265625 73.7109375 C105.610342 74.6835219 106.61426763 74.23008792 109.0078125 73.43359375 C111.13471219 72.20868149 111.13471219 72.20868149 113.2734375 70.66796875 C114.48580078 69.82685547 114.48580078 69.82685547 115.72265625 68.96875 C116.55925781 68.37964844 117.39585937 67.79054688 118.2578125 67.18359375 C132.96657471 56.90824182 144.42288521 50.23814555 163.0078125 52.43359375 C172.92451621 54.64086006 178.78681012 59.59674794 186.0078125 66.43359375 C186.48958954 66.88759552 186.97136658 67.34159729 187.46774292 67.80935669 C190.57376424 70.74227526 193.64236181 73.71023259 196.68652344 76.70727539 C197.73503906 77.73412343 198.78977665 78.75465605 199.85058594 79.76879883 C208.69502043 88.23088161 216.51891442 97.38897927 217.2109375 110.19140625 C217.50407109 126.27872489 213.42038658 135.74666176 203.84765625 148.734375 C203.02285767 149.86637329 203.02285767 149.86637329 202.18139648 151.02124023 C201.07935804 152.52743983 199.96323774 154.02345227 198.83227539 155.50805664 C195.87590766 159.36101886 195.87590766 159.36101886 194.95703125 163.96484375 C195.30378906 164.77953125 195.65054687 165.59421875 196.0078125 166.43359375 C196.49894531 167.62210938 196.99007813 168.810625 197.49609375 170.03515625 C198.10031003 171.378044 198.70855299 172.71912553 199.3203125 174.05859375 C207.0078125 191.24845133 207.0078125 191.24845133 207.0078125 195.43359375 C207.8730957 195.50271973 207.8730957 195.50271973 208.75585938 195.57324219 C215.76418772 196.1965125 222.60503095 197.33650547 229.5078125 198.68359375 C230.57128906 198.87566406 231.63476562 199.06773437 232.73046875 199.265625 C244.26207089 201.51534861 254.62889667 206.07874966 261.73046875 215.7890625 C267.38823337 224.75529881 269.47336786 232.87603621 269.44140625 243.42578125 C269.4466481 244.45236847 269.45188995 245.47895569 269.45729065 246.53665161 C269.46368014 248.69646302 269.46241398 250.85630937 269.45385742 253.01611328 C269.44535392 256.29263275 269.47414327 259.56740246 269.50585938 262.84375 C269.50747202 264.95442657 269.50689265 267.06510618 269.50390625 269.17578125 C269.51514023 270.14071503 269.52637421 271.1056488 269.53794861 272.099823 C269.4229214 283.51696804 265.19221952 293.76294342 257.41796875 302.1484375 C250.60922521 308.4445227 241.36837892 313.08180776 232.0078125 313.43359375 C227.67555029 312.70906024 224.82576151 311.16765055 221.5703125 308.24609375 C219.14953489 303.88869405 218.32041448 300.08223925 219.56640625 295.28125 C221.62959755 290.3571001 224.14155826 288.29810068 228.984375 286.21875 C229.65210938 285.95964844 230.31984375 285.70054687 231.0078125 285.43359375 C236.09886576 283.2796866 238.3579077 281.34082486 241.0078125 276.43359375 C242.5187327 270.63633978 242.23092299 264.68394884 242.24804688 258.73339844 C242.25771836 256.70335364 242.28876621 254.67433759 242.3203125 252.64453125 C242.52903144 241.02090866 242.52903144 241.02090866 237.66015625 230.79418945 C230.09728155 224.56666275 215.91399514 224.61274136 206.4375 223.1340332 C204.18259492 222.77931561 201.93125618 222.40648529 199.6796875 222.03125 C198.99831726 221.93006363 198.31694702 221.82887726 197.6149292 221.72462463 C192.28868239 220.81929844 187.91383261 219.01776931 184.63476562 214.57202148 C184.35568359 213.94755127 184.07660156 213.32308105 183.7890625 212.6796875 C183.31919922 211.63143799 183.31919922 211.63143799 182.83984375 210.56201172 C181.54705284 207.2549251 180.5167033 203.89843378 179.5078125 200.49609375 C176.62366499 191.20594525 172.42521958 182.65658755 167.97070312 174.02563477 C163.01704073 164.19873672 163.01704073 164.19873672 164.0078125 158.43359375 C166.20646774 152.65814068 170.18478018 147.74468492 173.7578125 142.74609375 C184.3468474 129.37841667 184.3468474 129.37841667 189.43359375 113.796875 C188.00899118 105.88967727 181.52669401 100.4881436 176.06347656 95.09814453 C174.63240512 93.68319096 173.21812193 92.25286064 171.8046875 90.8203125 C170.89460938 89.91410156 169.98453125 89.00789063 169.046875 88.07421875 C168.22396973 87.25469727 167.40106445 86.43517578 166.55322266 85.59082031 C162.33263822 82.01388917 157.98604525 79.63830865 152.31640625 79.90625 C142.83219654 82.07269384 134.17805663 90.11132697 126.51171875 95.8359375 C112.9838507 105.92260171 112.9838507 105.92260171 106.171875 105.80859375 C101.26401732 104.95813466 96.8866575 102.20350475 92.5078125 99.93359375 C82.99280983 95.15493543 73.51497865 91.21581368 63.35742188 88.02148438 C52.63662968 84.58186467 52.63662968 84.58186467 50.15332031 79.78198242 C46.9287501 71.3108444 46.06913067 61.83441976 44.6328125 52.91821289 C44.2659535 50.65758758 43.88738361 48.39914525 43.5078125 46.140625 C43.40146484 45.45611771 43.29511719 44.77161041 43.18554688 44.06636047 C42.20234194 38.25710525 40.79223204 33.86888773 36.1328125 30.12109375 C29.59294139 26.58956335 22.57710494 27.21427876 15.30761719 27.19335938 C13.27757239 27.18368789 11.24855634 27.15264004 9.21875 27.12109375 C-2.40487259 26.91237481 -2.40487259 26.91237481 -12.6315918 31.78125 C-18.8591185 39.3441247 -18.81303989 53.52741111 -20.29174805 63.00390625 C-20.64646564 65.25881133 -21.01929596 67.51015007 -21.39453125 69.76171875 C-21.49571762 70.44308899 -21.59690399 71.12445923 -21.70115662 71.82647705 C-22.60656443 77.15320404 -24.40767221 81.52957043 -28.85595703 84.80664062 C-29.7935083 85.22526367 -29.7935083 85.22526367 -30.75 85.65234375 C-31.44899414 85.96558594 -32.14798828 86.27882813 -32.86816406 86.6015625 C-36.15443751 87.88887514 -39.48652668 88.92614341 -42.8671875 89.93359375 C-52.30949623 92.86025233 -61.07064058 97.0785689 -69.86865234 101.55859375 C-79.94544522 106.48207804 -79.94544522 106.48207804 -85.71557617 105.32543945 C-90.78668895 103.33886841 -95.02652353 100.03818591 -99.3671875 96.80859375 C-101.31092388 95.39756587 -103.25623203 93.98870057 -105.203125 92.58203125 C-106.1528418 91.89206055 -107.10255859 91.20208984 -108.08105469 90.49121094 C-118.0279533 83.08014692 -118.0279533 83.08014692 -129.62890625 80.0078125 C-137.53610398 81.43241507 -142.93763765 87.91471224 -148.32763672 93.37792969 C-149.74259029 94.80900113 -151.17292061 96.22328432 -152.60546875 97.63671875 C-153.51167969 98.54679687 -154.41789062 99.456875 -155.3515625 100.39453125 C-156.58084473 101.62888916 -156.58084473 101.62888916 -157.83496094 102.88818359 C-161.41189208 107.10876803 -163.7874726 111.455361 -163.51953125 117.125 C-160.87854917 128.68663265 -150.04622028 139.78355062 -142.98828125 149.0703125 C-142.45332031 149.80894531 -141.91835937 150.54757813 -141.3671875 151.30859375 C-140.92117187 151.90414062 -140.47515625 152.4996875 -140.015625 153.11328125 C-137.89413367 157.92307458 -137.23989359 162.15641201 -138.91503906 167.22705078 C-140.32755876 170.39140763 -141.85216679 173.47321691 -143.4296875 176.55859375 C-148.16591888 186.23833597 -152.16018843 195.85737167 -155.40405273 206.13525391 C-158.84944767 216.80717362 -158.84944767 216.80717362 -163.64379883 219.28833008 C-172.11545636 222.51207625 -181.59115318 223.37224202 -190.50756836 224.80859375 C-192.76819367 225.17545275 -195.026636 225.55402264 -197.28515625 225.93359375 C-198.31191719 226.09311523 -198.31191719 226.09311523 -199.35942078 226.25585938 C-205.168676 227.23906431 -209.55689352 228.64917421 -213.3046875 233.30859375 C-216.8362179 239.84846486 -216.21150249 246.86430131 -216.23242188 254.13378906 C-216.24209336 256.16383386 -216.27314121 258.19284991 -216.3046875 260.22265625 C-216.51340644 271.84627884 -216.51340644 271.84627884 -211.64453125 282.07299805 C-204.08165655 288.30052475 -189.89837014 288.25444614 -180.421875 289.7331543 C-178.16696992 290.08787189 -175.91563118 290.46070221 -173.6640625 290.8359375 C-172.98269226 290.93712387 -172.30132202 291.03831024 -171.5993042 291.14256287 C-166.05125506 292.08558981 -161.79088065 294.11980141 -158.30078125 298.609375 C-156.49543887 302.5056811 -155.30556473 306.51877103 -154.0546875 310.62109375 C-150.8916197 320.69618358 -146.61982367 330.06458298 -141.81665039 339.46166992 C-136.95166166 349.3725163 -136.95166166 349.3725163 -138.10253906 355.15039062 C-140.08061778 360.22695268 -143.38672963 364.46676624 -146.6171875 368.80859375 C-148.02821538 370.75233013 -149.43708068 372.69763828 -150.84375 374.64453125 C-151.5337207 375.59424805 -152.22369141 376.54396484 -152.93457031 377.52246094 C-160.34563433 387.46935955 -160.34563433 387.46935955 -163.41796875 399.0703125 C-161.99336618 406.97751023 -155.51106901 412.3790439 -150.04785156 417.76904297 C-148.61678012 419.18399654 -147.20249693 420.61432686 -145.7890625 422.046875 C-144.87898438 422.95308594 -143.96890625 423.85929687 -143.03125 424.79296875 C-141.79689209 426.02225098 -141.79689209 426.02225098 -140.53759766 427.27636719 C-136.31701322 430.85329833 -131.97042025 433.22887885 -126.30078125 432.9609375 C-116.81657154 430.79449366 -108.16243163 422.75586053 -100.49609375 417.03125 C-86.9682257 406.94458579 -86.9682257 406.94458579 -80.15625 407.05859375 C-75.24839232 407.90905284 -70.8710325 410.66368275 -66.4921875 412.93359375 C-56.97718483 417.71225207 -47.49935365 421.65137382 -37.34179688 424.84570312 C-26.62100468 428.28532283 -26.62100468 428.28532283 -24.13769531 433.08520508 C-20.9131251 441.5563431 -20.05350567 451.03276774 -18.6171875 459.94897461 C-18.2503285 462.20959992 -17.87175861 464.46804225 -17.4921875 466.7265625 C-17.38583984 467.41106979 -17.27949219 468.09557709 -17.16992188 468.80082703 C-16.18671694 474.61008225 -14.77660704 478.99829977 -10.1171875 482.74609375 C-3.57731639 486.27762415 3.43852006 485.65290874 10.70800781 485.67382812 C12.73805261 485.68349961 14.76706866 485.71454746 16.796875 485.74609375 C28.93242617 485.88958378 28.93242617 485.88958378 39.3203125 480.37109375 C40.8524663 477.70401121 41.83736853 475.24923909 42.8828125 472.37109375 C44.66983539 467.69841133 46.30458464 465.5546573 51.0078125 463.43359375 C55.20581504 462.28868397 57.50100888 462.28756559 61.6953125 463.49609375 C65.63845089 465.80245771 67.11512594 467.26968333 69.0078125 471.43359375 C70.43874802 479.84218392 67.89336032 487.78749651 63.46484375 494.91796875 C56.90148737 503.86936555 47.94180297 510.09079965 37.0078125 512.43359375 C35.44816326 512.53655833 33.88495054 512.59161622 32.32202148 512.6105957 C31.39683212 512.62343094 30.47164276 512.63626617 29.51841736 512.64949036 C28.02623436 512.66057076 28.02623436 512.66057076 26.50390625 512.671875 C25.47024429 512.67994675 24.43658234 512.68801849 23.37159729 512.69633484 C21.18191191 512.71016052 18.99220512 512.72088945 16.80249023 512.72875977 C14.57683948 512.74025138 12.35121567 512.7606581 10.12573242 512.7902832 C6.89743456 512.83324397 3.66995558 512.84917098 0.44140625 512.859375 C-0.5392128 512.87688309 -1.51983185 512.89439117 -2.53016663 512.91242981 C-14.01565594 512.87695721 -24.27108193 508.66477818 -32.70703125 500.84375 C-40.05283555 492.89981405 -42.85976354 483.356411 -44.7421875 472.93359375 C-44.94972656 471.87011719 -45.15726563 470.80664062 -45.37109375 469.7109375 C-46.58949596 463.30450008 -47.47288897 456.93390405 -47.9921875 450.43359375 C-48.58572021 450.27503906 -49.17925293 450.11648438 -49.79077148 449.953125 C-59.06050591 447.4306907 -68.86246148 443.90144913 -77.25 439.15625 C-79.594717 438.1836656 -80.59864263 438.63709958 -82.9921875 439.43359375 C-85.11908719 440.65850601 -85.11908719 440.65850601 -87.2578125 442.19921875 C-88.47017578 443.04033203 -88.47017578 443.04033203 -89.70703125 443.8984375 C-90.96193359 444.78208984 -90.96193359 444.78208984 -92.2421875 445.68359375 C-106.95094971 455.95894568 -118.40726021 462.62904195 -136.9921875 460.43359375 C-146.90889121 458.22632744 -152.77118512 453.27043956 -159.9921875 446.43359375 C-160.71485306 445.75259109 -160.71485306 445.75259109 -161.45211792 445.05783081 C-164.55813924 442.12491224 -167.62673681 439.15695491 -170.67089844 436.15991211 C-171.71941406 435.13306407 -172.77415165 434.11253145 -173.83496094 433.09838867 C-183.36764982 423.97780527 -190.92239489 414.40811446 -191.28588867 400.64819336 C-191.43577847 382.99039612 -183.98988519 372.05659321 -173.68359375 358.3671875 C-173.04292969 357.50222656 -172.40226562 356.63726562 -171.7421875 355.74609375 C-171.18015625 355.02035156 -170.618125 354.29460937 -170.0390625 353.546875 C-168.60712339 350.6562815 -168.99955168 349.49091208 -169.9921875 346.43359375 C-171.05466623 343.862451 -172.14992334 341.33698911 -173.3046875 338.80859375 C-180.9921875 321.61873617 -180.9921875 321.61873617 -180.9921875 317.43359375 C-181.8574707 317.36446777 -181.8574707 317.36446777 -182.74023438 317.29394531 C-189.74856272 316.670675 -196.58940595 315.53068203 -203.4921875 314.18359375 C-204.55566406 313.99152344 -205.61914062 313.79945313 -206.71484375 313.6015625 C-218.24644589 311.35183889 -228.61327167 306.78843784 -235.71484375 297.078125 C-241.37260837 288.11188869 -243.45774286 279.99115129 -243.42578125 269.44140625 C-243.43364403 267.90152542 -243.43364403 267.90152542 -243.44166565 266.33053589 C-243.44805514 264.17072448 -243.44678898 262.01087813 -243.43823242 259.85107422 C-243.42972892 256.57455475 -243.45851827 253.29978504 -243.49023438 250.0234375 C-243.49184702 247.91276093 -243.49126765 245.80208132 -243.48828125 243.69140625 C-243.49951523 242.72647247 -243.51074921 241.7615387 -243.52232361 240.7673645 C-243.4072964 229.35021946 -239.17659452 219.10424408 -231.40234375 210.71875 C-223.4584078 203.3729457 -213.91500475 200.56601771 -203.4921875 198.68359375 C-202.42871094 198.47605469 -201.36523438 198.26851562 -200.26953125 198.0546875 C-193.86309383 196.83628529 -187.4924978 195.95289228 -180.9921875 195.43359375 C-180.75435547 194.54329468 -180.75435547 194.54329468 -180.51171875 193.63500977 C-177.98928445 184.36527534 -174.46004288 174.56331977 -169.71484375 166.17578125 C-168.74225935 163.83106425 -169.19569333 162.82713862 -169.9921875 160.43359375 C-171.21709976 158.30669406 -171.21709976 158.30669406 -172.7578125 156.16796875 C-173.31855469 155.35972656 -173.87929687 154.55148438 -174.45703125 153.71875 C-175.04613281 152.88214844 -175.63523437 152.04554688 -176.2421875 151.18359375 C-186.51753943 136.47483154 -193.1876357 125.01852104 -190.9921875 106.43359375 C-188.78492119 96.51689004 -183.82903331 90.65459613 -176.9921875 83.43359375 C-176.53818573 82.95181671 -176.08418396 82.47003967 -175.61642456 81.97366333 C-172.68350599 78.86764201 -169.71554866 75.79904444 -166.71850586 72.75488281 C-165.69165782 71.70636719 -164.6711252 70.6516296 -163.65698242 69.59082031 C-154.53639902 60.05813143 -144.96670821 52.50338636 -131.20678711 52.13989258 C-113.54898987 51.99000278 -102.61518696 59.43589606 -88.92578125 69.7421875 C-88.06082031 70.38285156 -87.19585937 71.02351563 -86.3046875 71.68359375 C-85.57894531 72.245625 -84.85320312 72.80765625 -84.10546875 73.38671875 C-81.21487525 74.81865786 -80.04950583 74.42622957 -76.9921875 73.43359375 C-74.42104475 72.37111502 -71.89558286 71.27585791 -69.3671875 70.12109375 C-52.17732992 62.43359375 -52.17732992 62.43359375 -47.9921875 62.43359375 C-47.94610352 61.85673828 -47.90001953 61.27988281 -47.85253906 60.68554688 C-47.22926875 53.67721853 -46.08927578 46.8363753 -44.7421875 39.93359375 C-44.55011719 38.87011719 -44.35804688 37.80664062 -44.16015625 36.7109375 C-41.91043264 25.17933536 -37.34703159 14.81250958 -27.63671875 7.7109375 C-18.67048244 2.05317288 -10.54974504 -0.03196161 0 0 Z " fill="#000000" transform="translate(242.9921875,-0.43359375)"/>
<path d="M0 0 C21.88475981 20.88599679 35.80343774 50.81239632 37.7421875 81.01953125 C37.77510081 84.39674581 37.73207966 87.76718373 37.67602539 91.14404297 C37.32478447 112.78689625 40.14770383 129.85616931 55.55615234 145.8359375 C57.60440995 147.91130674 59.67167187 149.96636631 61.7421875 152.01953125 C63.59423406 153.8719154 65.44581594 155.72475491 67.296875 157.578125 C70.19446293 160.47905953 73.09647328 163.3748564 76.01391602 166.25585938 C79.82740832 170.03141838 83.60958715 173.77962345 87.08984375 177.8671875 C92.27649465 183.9242824 98.07450825 189.41834433 103.7421875 195.01953125 C116.87853986 208.00176998 116.87853986 208.00176998 122.21240234 214.27148438 C125.35700771 217.86474554 128.84953736 221.12781961 132.28710938 224.4375 C136.39109816 228.45950546 139.01235847 231.41927657 139.1171875 237.39453125 C138.99675876 241.97082325 137.86880009 244.56380155 134.7421875 248.01953125 C130.3651381 250.93756418 126.95754979 251.66001434 121.7421875 251.01953125 C116.73169855 248.52575243 113.49848408 246.04103061 109.8046875 241.76953125 C103.13753123 234.24340926 95.99237149 227.20262017 88.84329224 220.13977051 C78.97515802 210.38998517 78.97515802 210.38998517 75.32421875 206.1015625 C70.1677023 200.06324525 64.38567021 194.59680551 58.7421875 189.01953125 C45.52925277 175.96160861 45.52925277 175.96160861 40.14746094 169.63427734 C38.19043293 167.38553113 36.04044008 165.36991288 33.8671875 163.33203125 C25.36681336 154.89634793 19.0966381 145.17243238 14.7421875 134.01953125 C14.44699219 133.30796875 14.15179688 132.59640625 13.84765625 131.86328125 C9.4916203 120.36162967 9.66396414 108.30843635 9.8046875 96.20703125 C10.05220463 68.42460818 2.84594636 43.88083592 -16.2578125 23.01953125 C-18.79260378 20.49521431 -21.44824295 18.23175087 -24.2578125 16.01953125 C-25.04542969 15.38402344 -25.83304688 14.74851563 -26.64453125 14.09375 C-37.51233085 5.72765614 -50.03704174 -0.35572641 -63.2578125 -3.98046875 C-64.03769531 -4.20476562 -64.81757813 -4.4290625 -65.62109375 -4.66015625 C-71.12581712 -6.01089509 -76.45869306 -6.07352256 -82.08984375 -6.02734375 C-82.87669556 -6.02395996 -83.66354736 -6.02057617 -84.47424316 -6.01708984 C-86.40211826 -6.00831015 -88.32997113 -5.9948606 -90.2578125 -5.98046875 C-89.32509521 -5.06346191 -88.39237793 -4.14645508 -87.43139648 -3.20166016 C-83.93659529 0.23838929 -80.45210219 3.68872815 -76.97045898 7.14208984 C-75.46897259 8.62859199 -73.96479195 10.11237828 -72.45776367 11.59326172 C-57.26563679 26.52857771 -46.30937018 38.91491245 -45.2578125 61.01953125 C-46.51605779 82.22620709 -63.19193851 96.41047602 -77.8125 109.81640625 C-80.50488802 112.2929977 -83.06010901 114.85688626 -85.5703125 117.51953125 C-94.22154322 126.20789171 -106.08402491 131.08914286 -118.3203125 131.45703125 C-135.14781698 130.79103503 -145.61740463 123.40104211 -157.2578125 112.01953125 C-157.88091309 111.41157715 -158.50401367 110.80362305 -159.14599609 110.17724609 C-165.62991719 103.82528865 -172.09669749 97.47639798 -177.9609375 90.5390625 C-179.62318389 88.59143044 -181.41142539 86.79206288 -183.2578125 85.01953125 C-187.00796949 105.69974477 -178.3247049 128.15153531 -167.140625 145.2578125 C-165.24334278 147.90326827 -163.28360883 150.47180486 -161.2578125 153.01953125 C-160.4946875 154.05078125 -159.7315625 155.08203125 -158.9453125 156.14453125 C-141.54798869 174.75562184 -116.72206894 185.99780841 -91.36499023 187.20483398 C-86.50252704 187.32962576 -81.63841038 187.38687327 -76.77441406 187.40039062 C-63.32763006 187.46284666 -50.9447774 189.43632416 -38.8828125 195.83203125 C-38.26277344 196.13689453 -37.64273438 196.44175781 -37.00390625 196.75585938 C-28.13176778 201.30168702 -20.92768667 208.04746485 -13.96875 215.078125 C-13.22122467 215.82610855 -12.47369934 216.5740921 -11.70352173 217.34474182 C-10.13655329 218.91470882 -8.57199285 220.48708266 -7.00976562 222.06176758 C-4.63724408 224.45256554 -2.25679816 226.83524405 0.125 229.21679688 C1.65672246 230.75343544 3.18798797 232.29052967 4.71875 233.828125 C5.41996979 234.53045761 6.12118958 235.23279022 6.84365845 235.95640564 C10.74752467 239.89738153 14.46036765 243.9443357 18.08578491 248.14198303 C20.56354625 250.95054927 23.19825961 253.5814766 25.8671875 256.20703125 C26.41777832 256.75383545 26.96836914 257.30063965 27.53564453 257.86401367 C29.26869567 259.58502632 31.00498523 261.30270957 32.7421875 263.01953125 C45.83457923 275.95832509 45.83457923 275.95832509 51.18115234 282.24462891 C54.52850714 286.05058282 58.26309619 289.50119769 61.93164062 292.99414062 C66.24220018 297.2017335 68.43542019 300.25862543 69.1171875 306.39453125 C68.66336878 310.78144556 67.64610827 313.6860364 64.7421875 317.01953125 C60.22953014 319.85100253 56.26620325 320.66061875 51.0703125 319.84765625 C44.99927404 317.68815935 40.82436841 312.29261127 36.75 307.5234375 C31.56420955 301.55303738 25.86480367 296.07331913 20.2421875 290.51953125 C7.9902262 278.41755024 7.9902262 278.41755024 4.2734375 274.05078125 C-0.86115399 268.02594312 -6.6318325 262.57950813 -12.2578125 257.01953125 C-19.15604523 250.20222751 -25.9924854 243.43380743 -32.2578125 236.01953125 C-41.01737615 226.24024741 -52.22691547 218.68924882 -65.2578125 216.01953125 C-67.49688628 215.90525127 -69.73872111 215.84143877 -71.98046875 215.80859375 C-73.32814036 215.78302352 -74.67579643 215.75662423 -76.0234375 215.72949219 C-76.72533203 215.71623901 -77.42722656 215.70298584 -78.15039062 215.68933105 C-107.8762551 215.07561637 -137.26916767 210.06427974 -161.2578125 191.01953125 C-162.46050781 190.11654297 -162.46050781 190.11654297 -163.6875 189.1953125 C-189.53667059 169.34540424 -206.51494207 140.4173892 -211.00830078 108.09521484 C-214.81124796 76.45856428 -214.81124796 76.45856428 -206.78515625 64.8984375 C-201.86093297 58.78522181 -196.61343599 55.35077123 -188.8203125 54.14453125 C-181.27518151 53.61116854 -175.22081425 55.37244571 -169.2578125 60.01953125 C-166.12300514 62.92922844 -163.15005965 65.98962729 -160.16796875 69.0546875 C-158.39675935 70.85118261 -156.6252663 72.64739808 -154.85351562 74.44335938 C-152.08043161 77.26610763 -149.31064021 80.09193677 -146.54614258 82.9230957 C-143.86641791 85.66330647 -141.17432816 88.39088123 -138.48046875 91.1171875 C-137.6604689 91.9641066 -136.84046906 92.8110257 -135.99562073 93.68360901 C-131.07409679 98.64771937 -127.07977202 102.1551378 -120.03515625 103.41796875 C-113.05915548 103.3291025 -108.60677882 100.67013422 -103.59765625 96.01953125 C-102.73769043 95.22289062 -101.87772461 94.42625 -100.99169922 93.60546875 C-100.0895166 92.75210938 -99.18733398 91.89875 -98.2578125 91.01953125 C-97.32855957 90.14554687 -96.39930664 89.2715625 -95.44189453 88.37109375 C-93.03053805 86.07839588 -90.64129333 83.76811669 -88.26879883 81.43554688 C-87.29671277 80.48525206 -86.31840239 79.54128603 -85.33422852 78.60351562 C-78.53578019 72.12004899 -73.69413887 66.91150459 -73.0859375 57.3046875 C-74.54527904 49.6161196 -78.819733 45.34332537 -84.2578125 40.01953125 C-85.70970175 38.57038012 -87.16009605 37.1197304 -88.609375 35.66796875 C-90.96438957 33.30907761 -93.32233777 30.95408737 -95.69726562 28.61523438 C-99.8992629 24.4641704 -103.89538293 20.22376782 -107.74365234 15.74316406 C-109.55231855 13.6842825 -111.49667454 11.8169251 -113.5078125 9.95703125 C-118.85629402 4.62924018 -120.77774941 -0.92564554 -121.3203125 -8.36328125 C-121.14595302 -15.6645843 -118.42855084 -22.7699555 -113.2578125 -27.98046875 C-81.63083051 -52.23622187 -24.45574935 -22.67513436 0 0 Z " fill="#000000" transform="translate(340.2578125,162.98046875)"/>
</svg>
