<?xml version="1.0" encoding="UTF-8"?>
<svg version="1.1" xmlns="http://www.w3.org/2000/svg" width="144" height="138">
<path d="M0 0 C3.49294295 0.7223061 5.21691662 2.32538363 7.84375 4.7109375 C8.72675781 5.48824219 9.60976563 6.26554688 10.51953125 7.06640625 C12.53125 9.5234375 12.53125 9.5234375 12.94921875 12.13671875 C12.53125 14.5234375 12.53125 14.5234375 10.53125 17.5234375 C11.19511719 18.18730469 11.85898437 18.85117187 12.54296875 19.53515625 C18.20572917 25.19791667 23.86848958 30.86067708 29.53125 36.5234375 C32.36127896 35.62297374 35.07380983 34.75869245 37.71875 33.3984375 C39.53125 32.5234375 39.53125 32.5234375 42.53125 32.5234375 C42.53125 31.8634375 42.53125 31.2034375 42.53125 30.5234375 C46.49125 30.0284375 46.49125 30.0284375 50.53125 29.5234375 C50.53125 26.5534375 50.53125 23.5834375 50.53125 20.5234375 C49.726875 20.5440625 48.9225 20.5646875 48.09375 20.5859375 C45.53125 20.5234375 45.53125 20.5234375 44.53125 19.5234375 C44.43138025 16.68008702 44.39247119 13.86646587 44.40625 11.0234375 C44.40044922 9.82654297 44.40044922 9.82654297 44.39453125 8.60546875 C44.40464233 2.65004517 44.40464233 2.65004517 45.53125 1.5234375 C46.87392413 1.43711876 48.22099322 1.41637277 49.56640625 1.42578125 C50.37529297 1.42900391 51.18417969 1.43222656 52.01757812 1.43554688 C52.86771484 1.44392578 53.71785156 1.45230469 54.59375 1.4609375 C55.44775391 1.46544922 56.30175781 1.46996094 57.18164062 1.47460938 C59.29820663 1.48643377 61.41473685 1.50436981 63.53125 1.5234375 C65.04839839 4.55773427 64.67488916 7.69945417 64.65625 11.0234375 C64.66011719 11.71308594 64.66398437 12.40273437 64.66796875 13.11328125 C64.65791646 18.27010457 64.65791646 18.27010457 63.53125 20.5234375 C61.55125 20.5234375 59.57125 20.5234375 57.53125 20.5234375 C57.53125 23.4934375 57.53125 26.4634375 57.53125 29.5234375 C60.50125 29.8534375 63.47125 30.1834375 66.53125 30.5234375 C66.53125 31.1834375 66.53125 31.8434375 66.53125 32.5234375 C67.2325 32.6265625 67.93375 32.7296875 68.65625 32.8359375 C71.53125 33.5234375 71.53125 33.5234375 74.59375 35.2109375 C77.32752068 36.77805716 77.32752068 36.77805716 79.59375 36.0859375 C81.73688286 34.35760455 83.3440541 32.39089205 85.04296875 30.234375 C86.75138402 28.27037004 88.61068232 26.64599315 90.59375 24.9609375 C93.63064798 22.37756493 96.17434231 19.76418558 98.53125 16.5234375 C97.54125 15.5334375 97.54125 15.5334375 96.53125 14.5234375 C95.96875 12.3359375 95.96875 12.3359375 96.53125 9.5234375 C99.70019653 5.59191026 103.77365381 0.97024932 108.91796875 0.13671875 C112.49148248 0.66553468 113.83260769 2.15815104 116.34375 4.7109375 C117.13394531 5.48824219 117.92414063 6.26554688 118.73828125 7.06640625 C120.53125 9.5234375 120.53125 9.5234375 121.0546875 11.9921875 C120.3323814 15.48513045 118.72930387 17.20910412 116.34375 19.8359375 C115.56644531 20.71894531 114.78914063 21.60195313 113.98828125 22.51171875 C111.53125 24.5234375 111.53125 24.5234375 108.91796875 24.94140625 C106.53125 24.5234375 106.53125 24.5234375 103.53125 22.5234375 C102.53544922 23.51923828 102.53544922 23.51923828 101.51953125 24.53515625 C93.53125 32.5234375 93.53125 32.5234375 90.875 35.1484375 C89.05388254 36.99383652 87.35267731 38.82854109 85.71875 40.8359375 C84.996875 41.7228125 84.275 42.6096875 83.53125 43.5234375 C83.985 44.0803125 84.43875 44.6371875 84.90625 45.2109375 C87.28887089 48.6015903 88.53125 51.35997765 88.53125 55.5234375 C89.19125 55.5234375 89.85125 55.5234375 90.53125 55.5234375 C91.02625 59.4834375 91.02625 59.4834375 91.53125 63.5234375 C94.50125 63.5234375 97.47125 63.5234375 100.53125 63.5234375 C100.469375 62.7396875 100.4075 61.9559375 100.34375 61.1484375 C100.4365625 59.8490625 100.4365625 59.8490625 100.53125 58.5234375 C104.17691208 56.09299611 106.88761743 56.26033058 111.09375 56.3359375 C112.12145508 56.3369043 112.12145508 56.3369043 113.16992188 56.33789062 C118.24989073 56.38275787 118.24989073 56.38275787 120.53125 57.5234375 C120.55808987 60.50266343 120.57801037 63.48165045 120.59375 66.4609375 C120.60212891 67.31107422 120.61050781 68.16121094 120.61914062 69.03710938 C120.62236328 69.84599609 120.62558594 70.65488281 120.62890625 71.48828125 C120.63414307 72.237146 120.63937988 72.98601074 120.64477539 73.75756836 C120.53125 75.5234375 120.53125 75.5234375 119.53125 76.5234375 C116.70708618 76.65006841 113.91830207 76.70864298 111.09375 76.7109375 C110.30419922 76.72318359 109.51464844 76.73542969 108.70117188 76.74804688 C106.64317565 76.75331029 104.58562991 76.64550035 102.53125 76.5234375 C101.87125 75.8634375 101.21125 75.2034375 100.53125 74.5234375 C100.53125 73.2034375 100.53125 71.8834375 100.53125 70.5234375 C97.56125 70.5234375 94.59125 70.5234375 91.53125 70.5234375 C91.20125 72.8334375 90.87125 75.1434375 90.53125 77.5234375 C89.87125 77.5234375 89.21125 77.5234375 88.53125 77.5234375 C88.428125 78.2246875 88.325 78.9259375 88.21875 79.6484375 C87.4388397 82.90988059 86.02647901 85.53297947 84.53125 88.5234375 C84.18225803 91.52448797 84.18225803 91.52448797 86.03515625 93.06640625 C87.05416016 93.88044922 87.05416016 93.88044922 88.09375 94.7109375 C91.7769532 97.78244264 94.82930983 101.06974097 97.921875 104.72265625 C99.91611421 106.9540744 102.11435217 108.76569363 104.53125 110.5234375 C105.19125 109.8634375 105.85125 109.2034375 106.53125 108.5234375 C108.71875 107.9609375 108.71875 107.9609375 111.53125 108.5234375 C115.46277724 111.69238403 120.08443818 115.76584131 120.91796875 120.91015625 C120.38915282 124.48366998 118.89653646 125.82479519 116.34375 128.3359375 C115.56644531 129.12613281 114.78914063 129.91632813 113.98828125 130.73046875 C111.53125 132.5234375 111.53125 132.5234375 109.0625 133.046875 C105.56955705 132.3245689 103.84558338 130.72149137 101.21875 128.3359375 C100.33574219 127.55863281 99.45273438 126.78132813 98.54296875 125.98046875 C96.53125 123.5234375 96.53125 123.5234375 96.11328125 120.91015625 C96.53125 118.5234375 96.53125 118.5234375 98.53125 115.5234375 C97.86738281 114.85957031 97.20351562 114.19570312 96.51953125 113.51171875 C90.85677083 107.84895833 85.19401042 102.18619792 79.53125 96.5234375 C76.70122104 97.42390126 73.98869017 98.28818255 71.34375 99.6484375 C69.53125 100.5234375 69.53125 100.5234375 66.53125 100.5234375 C66.53125 101.1834375 66.53125 101.8434375 66.53125 102.5234375 C62.07625 103.0184375 62.07625 103.0184375 57.53125 103.5234375 C57.53125 106.4934375 57.53125 109.4634375 57.53125 112.5234375 C59.51125 112.5234375 61.49125 112.5234375 63.53125 112.5234375 C64.72153338 116.09428764 64.71523398 119.3695058 64.71875 123.0859375 C64.73099609 123.77107422 64.74324219 124.45621094 64.75585938 125.16210938 C64.76112533 126.95077862 64.65325021 128.73892598 64.53125 130.5234375 C61.97176001 133.08292749 60.25917805 132.78412481 56.765625 132.796875 C56.02828125 132.78914062 55.2909375 132.78140625 54.53125 132.7734375 C53.79390625 132.78117188 53.0565625 132.78890625 52.296875 132.796875 C46.7845696 132.7767571 46.7845696 132.7767571 44.53125 130.5234375 C44.35945948 127.63211573 44.2989553 124.84901685 44.34375 121.9609375 C44.34439453 121.16751953 44.34503906 120.37410156 44.34570312 119.55664062 C44.39099478 113.66369272 44.39099478 113.66369272 45.53125 112.5234375 C47.19742115 112.48279918 48.86513095 112.4807165 50.53125 112.5234375 C50.53125 109.5534375 50.53125 106.5834375 50.53125 103.5234375 C47.89125 103.1934375 45.25125 102.8634375 42.53125 102.5234375 C42.53125 101.8634375 42.53125 101.2034375 42.53125 100.5234375 C41.83 100.4203125 41.12875 100.3171875 40.40625 100.2109375 C37.53125 99.5234375 37.53125 99.5234375 34.46875 97.8359375 C31.73497932 96.26881784 31.73497932 96.26881784 29.46875 96.9609375 C27.32561714 98.68927045 25.7184459 100.65598295 24.01953125 102.8125 C22.31111598 104.77650496 20.45181768 106.40088185 18.46875 108.0859375 C15.43185202 110.66931007 12.88815769 113.28268942 10.53125 116.5234375 C11.19125 117.1834375 11.85125 117.8434375 12.53125 118.5234375 C13.09375 120.7109375 13.09375 120.7109375 12.53125 123.5234375 C9.36230347 127.45496474 5.28884619 132.07662568 0.14453125 132.91015625 C-3.42898248 132.38134032 -4.77010769 130.88872396 -7.28125 128.3359375 C-8.07144531 127.55863281 -8.86164062 126.78132813 -9.67578125 125.98046875 C-11.46875 123.5234375 -11.46875 123.5234375 -11.9921875 121.0546875 C-11.2698814 117.56174455 -9.66680387 115.83777088 -7.28125 113.2109375 C-6.11529297 111.88642578 -6.11529297 111.88642578 -4.92578125 110.53515625 C-2.46875 108.5234375 -2.46875 108.5234375 0.14453125 108.10546875 C2.53125 108.5234375 2.53125 108.5234375 5.53125 110.5234375 C6.19511719 109.85957031 6.85898437 109.19570312 7.54296875 108.51171875 C15.53125 100.5234375 15.53125 100.5234375 18.1875 97.8984375 C20.00861746 96.05303848 21.70982269 94.21833391 23.34375 92.2109375 C24.065625 91.3240625 24.7875 90.4371875 25.53125 89.5234375 C25.0775 88.9665625 24.62375 88.4096875 24.15625 87.8359375 C21.77362911 84.4452847 20.53125 81.68689735 20.53125 77.5234375 C19.87125 77.5234375 19.21125 77.5234375 18.53125 77.5234375 C18.20125 75.2134375 17.87125 72.9034375 17.53125 70.5234375 C14.23125 70.5234375 10.93125 70.5234375 7.53125 70.5234375 C7.53125 72.1734375 7.53125 73.8234375 7.53125 75.5234375 C5.6457247 77.4089628 2.95356169 76.65590439 0.44921875 76.66015625 C-0.74767578 76.65435547 -0.74767578 76.65435547 -1.96875 76.6484375 C-2.76667969 76.65230469 -3.56460937 76.65617187 -4.38671875 76.66015625 C-10.34214233 76.65004517 -10.34214233 76.65004517 -11.46875 75.5234375 C-11.55506874 74.18076337 -11.57581473 72.83369428 -11.56640625 71.48828125 C-11.56318359 70.67939453 -11.55996094 69.87050781 -11.55664062 69.03710938 C-11.54826172 68.18697266 -11.53988281 67.33683594 -11.53125 66.4609375 C-11.52673828 65.60693359 -11.52222656 64.75292969 -11.51757812 63.87304688 C-11.50575373 61.75648087 -11.48781769 59.63995065 -11.46875 57.5234375 C-8.43445323 56.00628911 -5.29273333 56.37979834 -1.96875 56.3984375 C-1.27910156 56.39457031 -0.58945313 56.39070313 0.12109375 56.38671875 C5.27791707 56.39677104 5.27791707 56.39677104 7.53125 57.5234375 C7.53125 59.5034375 7.53125 61.4834375 7.53125 63.5234375 C10.83125 63.5234375 14.13125 63.5234375 17.53125 63.5234375 C17.86125 60.8834375 18.19125 58.2434375 18.53125 55.5234375 C19.19125 55.5234375 19.85125 55.5234375 20.53125 55.5234375 C20.634375 54.8221875 20.7375 54.1209375 20.84375 53.3984375 C21.6236603 50.13699441 23.03602099 47.51389553 24.53125 44.5234375 C24.88024197 41.52238703 24.88024197 41.52238703 23.02734375 39.98046875 C22.00833984 39.16642578 22.00833984 39.16642578 20.96875 38.3359375 C17.2855468 35.26443236 14.23319017 31.97713403 11.140625 28.32421875 C9.14638579 26.0928006 6.94814783 24.28118137 4.53125 22.5234375 C3.87125 23.1834375 3.21125 23.8434375 2.53125 24.5234375 C0.34375 25.0859375 0.34375 25.0859375 -2.46875 24.5234375 C-6.40027724 21.35449097 -11.02193818 17.28103369 -11.85546875 12.13671875 C-11.32665282 8.56320502 -9.83403646 7.22207981 -7.28125 4.7109375 C-6.50394531 3.92074219 -5.72664062 3.13054688 -4.92578125 2.31640625 C-2.46875 0.5234375 -2.46875 0.5234375 0 0 Z M50.53125 7.5234375 C50.53125 9.5034375 50.53125 11.4834375 50.53125 13.5234375 C52.84125 13.5234375 55.15125 13.5234375 57.53125 13.5234375 C57.86125 11.5434375 58.19125 9.5634375 58.53125 7.5234375 C55.89125 7.5234375 53.25125 7.5234375 50.53125 7.5234375 Z M108.53125 7.5234375 C106.88125 9.1734375 105.23125 10.8234375 103.53125 12.5234375 C105.18125 14.1734375 106.83125 15.8234375 108.53125 17.5234375 C110.18125 15.8734375 111.83125 14.2234375 113.53125 12.5234375 C111.88125 10.8734375 110.23125 9.2234375 108.53125 7.5234375 Z M33.53125 43.5234375 C33.53125 44.1834375 33.53125 44.8434375 33.53125 45.5234375 C32.87125 45.5234375 32.21125 45.5234375 31.53125 45.5234375 C26.46216932 53.73884413 23.22220821 61.71985282 24.53125 71.5234375 C25.98436168 77.28602254 27.47302406 83.02849958 31.53125 87.5234375 C32.19125 87.5234375 32.85125 87.5234375 33.53125 87.5234375 C33.86125 88.5134375 34.19125 89.5034375 34.53125 90.5234375 C36.74669656 91.95422175 36.74669656 91.95422175 39.40625 93.1484375 C40.29054688 93.57382813 41.17484375 93.99921875 42.0859375 94.4375 C49.06734198 97.53786812 57.16253226 97.67100705 64.53515625 95.734375 C68.61383571 94.14180567 72.19331992 92.40070302 75.53125 89.5234375 C75.53125 88.8634375 75.53125 88.2034375 75.53125 87.5234375 C76.19125 87.5234375 76.85125 87.5234375 77.53125 87.5234375 C82.60033068 79.30803087 85.84029179 71.32702218 84.53125 61.5234375 C83.07813832 55.76085246 81.58947594 50.01837542 77.53125 45.5234375 C76.87125 45.5234375 76.21125 45.5234375 75.53125 45.5234375 C75.03625 44.0384375 75.03625 44.0384375 74.53125 42.5234375 C72.31580344 41.09265325 72.31580344 41.09265325 69.65625 39.8984375 C68.77195313 39.47304688 67.88765625 39.04765625 66.9765625 38.609375 C56.05412187 33.75883427 42.59709334 35.70876259 33.53125 43.5234375 Z M-5.46875 62.5234375 C-5.46875 65.1634375 -5.46875 67.8034375 -5.46875 70.5234375 C-3.48875 70.5234375 -1.50875 70.5234375 0.53125 70.5234375 C0.53125 68.2134375 0.53125 65.9034375 0.53125 63.5234375 C-2.43875 63.0284375 -2.43875 63.0284375 -5.46875 62.5234375 Z M-0.46875 115.5234375 C-2.44875 118.4934375 -2.44875 118.4934375 -4.46875 121.5234375 C-1.99375 123.5034375 -1.99375 123.5034375 0.53125 125.5234375 C2.18125 123.8734375 3.83125 122.2234375 5.53125 120.5234375 C3.55125 118.8734375 1.57125 117.2234375 -0.46875 115.5234375 Z M108.53125 115.5234375 C106.88125 117.5034375 105.23125 119.4834375 103.53125 121.5234375 C106.50125 123.5034375 106.50125 123.5034375 109.53125 125.5234375 C110.85125 123.8734375 112.17125 122.2234375 113.53125 120.5234375 C111.88125 118.8734375 110.23125 117.2234375 108.53125 115.5234375 Z " fill="#000000" transform="translate(16.46875,2.4765625)"/>
<path d="M0 0 C2.4375 0.375 2.4375 0.375 5 1 C6.63405901 4.26811802 6.18453757 7.84999407 6.1875 11.4375 C6.19974609 12.21416016 6.21199219 12.99082031 6.22460938 13.79101562 C6.23474195 17.71232309 6.2225417 19.66618745 4 23 C3.34 23 2.68 23 2 23 C1.62875 23.8353125 1.62875 23.8353125 1.25 24.6875 C-0.62397149 28.15434725 -2.42714272 31.30609238 -6.125 32.9375 C-6.74375 32.958125 -7.3625 32.97875 -8 33 C-8.66 32.34 -9.32 31.68 -10 31 C-9.67033048 27.62088744 -8.30183823 26.11823741 -6 23.75 C-2.24083359 19.0331412 -2.2901012 14.34840574 -2.2265625 8.54785156 C-2.18345861 4.80320137 -2.13782235 3.20673353 0 0 Z " fill="#000000" transform="translate(69,50)"/>
</svg>
