<?xml version="1.0" encoding="UTF-8"?>
<svg version="1.1" xmlns="http://www.w3.org/2000/svg" width="512" height="512">
<path d="M0 0 C1.22654297 0.31727051 2.45308594 0.63454102 3.71679688 0.96142578 C13.90154692 3.66249413 23.71543682 6.88681506 33.4375 10.9375 C34.22463379 11.25912109 35.01176758 11.58074219 35.82275391 11.91210938 C55.97278289 20.2278667 74.44375761 31.30943297 91.4375 44.9375 C91.9747168 45.36579102 92.51193359 45.79408203 93.06542969 46.23535156 C96.22429226 48.76204403 99.33823452 51.33828407 102.4375 53.9375 C103.09105469 54.46730469 103.74460937 54.99710938 104.41796875 55.54296875 C108.22041571 58.6739019 111.39786675 62.07872974 114.578125 65.8359375 C116.47415965 67.97893465 118.48364365 69.90994965 120.5625 71.875 C160.47532425 111.37985671 182.9879328 172.66487256 184.4375 227.9375 C184.47746094 229.20207031 184.51742187 230.46664062 184.55859375 231.76953125 C184.81805655 244.21774627 183.59680701 256.55618497 182.4375 268.9375 C182.24809537 271.01296593 182.05926973 273.08848481 181.87109375 275.1640625 C181.7462561 276.53812256 181.7462561 276.53812256 181.61889648 277.93994141 C181.55903564 278.59913574 181.4991748 279.25833008 181.4375 279.9375 C182.200625 279.4425 182.96375 278.9475 183.75 278.4375 C189.23504525 276.20629515 194.84167448 275.82702447 200.5625 277.59375 C204.29212329 279.45856165 206.92165826 282.08093546 208.77734375 285.81640625 C210.57138132 291.58068082 210.09463865 297.059961 208.125 302.6875 C202.55299623 310.91405047 189.71965665 315.74722518 181.3125 320.5625 C179.63994141 321.52542969 179.63994141 321.52542969 177.93359375 322.5078125 C175.76406574 323.75484391 173.59172193 324.99699247 171.41625977 326.23364258 C169.54955604 327.30140139 167.69164295 328.3848455 165.84741211 329.4909668 C159.57456529 333.1888873 154.72397631 334.06009549 147.4375 332.9375 C140.75972209 329.71785708 137.35162573 324.04473174 133.79296875 317.74609375 C133.46009354 317.16013931 133.12721832 316.57418488 132.78425598 315.97047424 C131.72704431 314.10761786 130.67581355 312.24147154 129.625 310.375 C128.58754337 308.54118069 127.54883541 306.70807556 126.50979614 304.87515259 C125.82574066 303.66793023 125.14252774 302.46023004 124.46017456 301.25204468 C121.62878385 296.24639965 118.71829061 291.29082136 115.77856445 286.34790039 C113.33725675 281.95994646 112.81257204 277.8753111 113.4375 272.9375 C115.28412326 267.1021705 117.95324143 263.85465881 123.4375 260.9375 C128.02812609 259.4072913 132.81290138 258.9961235 137.44140625 260.65625 C141.34673208 262.74808759 143.93100736 265.3281506 146.4375 268.9375 C156.33089505 217.35737243 142.2916166 162.53125796 113.37890625 119.3046875 C107.91371897 111.32325501 102.0856451 103.97671246 95.4375 96.9375 C94.37097854 95.67003971 93.30837909 94.39926736 92.25 93.125 C79.02250981 78.04687472 62.68172536 65.7907166 45.27001953 55.97119141 C44.06369125 55.29072326 42.86138861 54.60306044 41.66357422 53.90771484 C22.38098179 42.72947787 0.72612022 35.92406014 -21 31.3125 C-27.0936013 29.95049351 -30.8074195 28.02462275 -34.875 23.1875 C-37.56741551 18.00210717 -37.94185189 13.97220561 -36.875 8.25 C-35.06014529 3.6696524 -33.04709382 1.01383052 -29.0625 -1.875 C-19.4888552 -5.12320091 -9.46747733 -2.50354585 0 0 Z " fill="#000000" transform="translate(302.5625,29.0625)"/>
<path d="M0 0 C4.63044377 1.81748337 8.79938061 4.26373329 13.0625 6.8125 C14.2484176 7.50093374 15.43536047 8.18760415 16.62329102 8.87255859 C18.98876487 10.24309732 21.34455969 11.62825182 23.69238281 13.02880859 C26.65645645 14.79526346 29.63387504 16.5358675 32.6171875 18.26953125 C34.22549941 19.21874786 35.83239066 20.17037789 37.4375 21.125 C38.15752197 21.54885986 38.87754395 21.97271973 39.61938477 22.40942383 C45.12038618 25.77148238 49.21402636 29.60026114 51 36 C52.62322131 47.56545182 43.69990769 58.493171 38.0625 68.0625 C37.48048828 69.06087891 36.89847656 70.05925781 36.29882812 71.08789062 C33.35620048 76.10958409 30.36257439 81.09929342 27.296875 86.046875 C26.75514648 86.92311523 26.21341797 87.79935547 25.65527344 88.70214844 C22.47083361 93.12278969 18.88751091 95.45197161 13.55078125 96.46484375 C8.14103268 96.80450637 4.10645807 95.78323404 -0.3046875 92.61328125 C-4.27442225 88.83563044 -6.17333445 84.38987689 -6.4375 78.9375 C-5.95639565 74.60756087 -4.93095608 71.86191215 -3 68 C-19.31301794 73.47802643 -35.12599327 81.8309837 -49 92 C-50.051875 92.76828125 -51.10375 93.5365625 -52.1875 94.328125 C-59.90574249 100.06856072 -67.0540595 106.35054567 -74 113 C-74.83748779 113.78866455 -74.83748779 113.78866455 -75.69189453 114.59326172 C-106.1462411 143.36467203 -125.58074186 182.20019602 -134 223 C-134.16516113 223.79937988 -134.33032227 224.59875977 -134.50048828 225.42236328 C-141.65865725 262.19033149 -136.72461766 299.82614702 -125 335 C-124.46577896 340.96889281 -124.46693278 345.93593698 -128 351 C-132.14373238 355.16637572 -135.79544184 357.13450783 -141.6875 357.375 C-146.31844565 357.30739495 -149.29708125 356.27327788 -153.2109375 353.875 C-158.45991783 348.37388524 -160.37615787 340.35774356 -162.5 333.25 C-162.80188232 332.24573975 -163.10376465 331.24147949 -163.41479492 330.20678711 C-165.32013182 323.70920466 -166.97698361 317.20064741 -168.3125 310.5625 C-168.53292969 309.46760254 -168.53292969 309.46760254 -168.7578125 308.35058594 C-169.21774908 305.9058296 -169.61812494 303.45822493 -170 301 C-170.17732666 299.87263428 -170.35465332 298.74526855 -170.53735352 297.58374023 C-172.13058757 286.3587788 -172.35878364 275.26313167 -172.3125 263.9375 C-172.31034485 262.98812561 -172.3081897 262.03875122 -172.30596924 261.06060791 C-172.25425957 246.85898153 -171.87806254 232.9542426 -169 219 C-168.79600586 218.00484375 -168.59201172 217.0096875 -168.38183594 215.984375 C-159.36920694 173.37444927 -141.10659304 134.57735422 -112 102 C-111.53706543 101.48066895 -111.07413086 100.96133789 -110.59716797 100.42626953 C-101.37781613 90.1305305 -91.91249198 80.52071292 -81 72 C-80.40268066 71.53158691 -79.80536133 71.06317383 -79.18994141 70.58056641 C-59.48892063 55.20745866 -37.52075185 42.56285436 -14 34 C-14 33.34 -14 32.68 -14 32 C-14.928125 31.29875 -15.85625 30.5975 -16.8125 29.875 C-20.53181762 26.86957984 -22.11153018 23.67524897 -23 19 C-23.13712181 14.04533205 -22.07747675 9.92643585 -19 6 C-12.88825627 0.23142905 -8.35181495 -1.19202132 0 0 Z " fill="#000000" transform="translate(172,3)"/>
<path d="M0 0 C1.07950928 -0.00287018 2.15901855 -0.00574036 3.27124023 -0.00869751 C5.54378792 -0.01073053 7.81635341 -0.00525427 10.08886719 0.00732422 C13.5518333 0.02338802 17.01363235 0.00744876 20.4765625 -0.01171875 C22.69271089 -0.00973618 24.90885856 -0.00589223 27.125 0 C28.15230225 -0.00607269 29.17960449 -0.01214539 30.23803711 -0.0184021 C37.67288915 0.05373692 43.52419734 0.8885353 49.4375 5.7734375 C53.21723672 10.44252404 53.97491947 14.29173514 53.80859375 20.19140625 C53.27678353 24.96081541 51.20335497 27.71069071 48 31.1484375 C44.06750921 34.24465177 39.4088796 34.75672321 34.5625 35.3984375 C78.54440116 69.6329984 133.20372747 85.7652166 188.80834961 79.578125 C223.4842183 75.05766851 257.04704617 62.83095085 285.5625 42.3984375 C286.43455078 41.77654541 286.43455078 41.77654541 287.32421875 41.14208984 C300.63199468 31.53810853 314.16527027 19.82582914 324.375 6.9609375 C327.77941115 2.97291301 330.7525806 1.35813706 335.875 0.5234375 C340.65300769 0.14978299 344.44287532 0.91586892 348.5625 3.3984375 C352.34731574 6.66452215 354.60181897 10.49896427 355.5625 15.3984375 C355.92208985 22.825351 353.39791093 27.00829492 348.5625 32.3984375 C347.28826172 33.85056641 347.28826172 33.85056641 345.98828125 35.33203125 C304.7632226 81.57075753 244.63556459 111.79344174 182.5625 115.3984375 C137.82372527 116.84787015 96.1001705 110.06269395 55.5625 90.3984375 C54.90620605 90.08326172 54.24991211 89.76808594 53.57373047 89.44335938 C37.90347543 81.82021456 22.72158354 71.81952888 9.5625 60.3984375 C9.41554687 61.11128906 9.26859375 61.82414062 9.1171875 62.55859375 C7.34112403 70.1425889 5.02739151 75.6229644 -1.75 79.8359375 C-6.97786462 80.93014172 -11.61176038 81.03042429 -16.6875 79.2734375 C-22.4885897 75.31814907 -24.91586991 71.1443734 -26.4375 64.3984375 C-26.69426146 61.31734433 -26.6949481 58.25826656 -26.66796875 55.16796875 C-26.66751053 54.29629562 -26.66705231 53.4246225 -26.6665802 52.52653503 C-26.66357188 50.68849318 -26.65572839 48.85045354 -26.64331055 47.01245117 C-26.62516852 44.23672163 -26.62280051 41.46132931 -26.62304688 38.68554688 C-26.57381087 11.70830876 -26.57381087 11.70830876 -21.49609375 5.01953125 C-15.06304959 -0.04633844 -7.8165316 -0.04620587 0 0 Z " fill="#000000" transform="translate(78.4375,393.6015625)"/>
</svg>
