<svg width="88" height="40" viewBox="0 0 88 40" fill="none" xmlns="http://www.w3.org/2000/svg">
<g clip-path="url(#clip0_9_3183)">
<path d="M59.9322 3.86841V23.8049H56.3051V3.86841H51.0742V0.240723H65.0765V3.86841H59.9322Z" fill="#231F20"/>
<path d="M13.0321 22.1476C11.7002 23.3853 10.0356 23.9868 8.10412 23.9868C3.85032 23.9868 1.74492 21.7916 0.177734 18.1196L3.51133 16.5708C4.42015 18.8735 5.31442 20.33 8.10412 20.33C9.92808 20.33 11.4112 19.2093 11.4112 17.2956C11.4112 16.037 10.773 14.872 9.2267 13.7988L4.51249 10.9768C2.63097 9.69361 1.53306 8.03282 1.53306 6.02735C1.53306 4.27865 2.15791 2.81265 3.43544 1.70398C4.62759 0.630726 6.11193 0.120346 7.83217 0.120346C11.1677 0.120346 12.7842 1.86462 14.2552 4.5759L11.0115 6.16838C10.2361 4.82698 9.60301 3.7474 7.83217 3.7474C6.96003 3.7474 6.34657 3.96053 5.89627 4.32671C5.43459 4.71946 5.18983 5.24692 5.18983 6.02735C5.18983 6.52318 5.64582 7.3365 7.34329 8.41608C10.1981 10.2198 11.8513 11.2861 12.1524 11.5372C14.0282 13.1265 15.0382 15.0561 15.0382 17.2956C15.0382 19.2454 14.3811 20.8923 13.0321 22.1476Z" fill="#231F20"/>
<path d="M39.9287 23.8049V0.240723H43.5551V20.1487H48.9922V23.8049H39.9287Z" fill="#231F20"/>
<mask id="mask0_9_3183" style="mask-type:luminance" maskUnits="userSpaceOnUse" x="66" y="-1" width="22" height="26">
<path d="M66.0723 -0.000320435H87.8017V24.1235H66.0723V-0.000320435Z" fill="white"/>
</mask>
<g mask="url(#mask0_9_3183)">
<path fill-rule="evenodd" clip-rule="evenodd" d="M82.1918 5.98388C80.8049 4.40657 79.0732 3.6255 76.9331 3.6255C72.2435 3.6255 69.5322 7.68515 69.5322 12.0389C69.5322 16.392 72.2435 20.451 76.9331 20.451C79.0732 20.451 80.8049 19.6699 82.1918 18.0939C83.6047 16.5045 84.3332 14.5067 84.3332 12.0389C84.3332 9.56982 83.6047 7.57194 82.1918 5.98388ZM84.6975 20.5737C82.6276 22.9169 80.0206 24.1071 76.9331 24.1071C73.8613 24.1071 71.2531 22.9124 69.1673 20.5737C67.1106 18.2229 66.0898 15.3573 66.0898 12.0389C66.0898 5.83399 70.3297 -0.000915527 76.9331 -0.000915527C83.5515 -0.000915527 87.8028 5.81059 87.8028 12.0389C87.8028 15.3598 86.7738 18.2229 84.6975 20.5737Z" fill="#231F20"/>
</g>
<path d="M33.2372 23.8049L27.045 8.12413L20.8875 23.8049H17.0967L27.045 0.0390015L37.0287 23.8049H33.2372Z" fill="#0093D0"/>
<path d="M24.249 18.8897L27.083 26.2007L29.8727 18.8897H24.249Z" fill="#0093D0"/>
<path fill-rule="evenodd" clip-rule="evenodd" d="M0.649471 30.1582V28.9035H0.186523V30.1582H0.649471ZM0.649471 37.6021V31.3396H0.186523V37.6021H0.649471Z" fill="#231F20"/>
<path d="M3.21973 37.602H3.68331V34.2147C3.68331 32.6804 4.53584 31.5957 5.93669 31.5957C7.64239 31.5957 7.71575 32.9972 7.71575 33.6423V37.602H8.17933V33.7277C8.17933 32.9599 8.1553 31.1929 5.94934 31.1929C4.97412 31.1929 4.02419 31.7412 3.70671 32.6804H3.68331V31.3396H3.21973V37.602Z" fill="#231F20"/>
<path d="M10.3906 35.5194C10.4273 36.981 11.4993 37.7488 12.9255 37.7488C14.0221 37.7488 15.3743 37.3706 15.3743 36.019C15.3743 34.7029 14.3997 34.4101 13.1563 34.1786C12.145 33.9592 11.073 33.8004 11.073 32.8018C11.073 31.912 12.0236 31.5957 12.8768 31.5957C13.9247 31.5957 14.7159 32.0581 14.7285 33.1914H15.1909C15.1909 31.7671 14.2042 31.1929 12.8768 31.1929C11.8168 31.1929 10.6101 31.5584 10.6101 32.8018C10.6101 34.0806 11.6827 34.3614 12.7667 34.5802C13.8393 34.7997 14.9107 34.9584 14.9107 36.019C14.9107 37.1024 13.7419 37.3465 12.9255 37.3465C11.7921 37.3465 10.9269 36.6768 10.8536 35.5194H10.3906Z" fill="#231F20"/>
<mask id="mask1_9_3183" style="mask-type:luminance" maskUnits="userSpaceOnUse" x="17" y="31" width="7" height="9">
<path d="M17.6631 31.0852H23.3298V39.8445H17.6631V31.0852Z" fill="white"/>
</mask>
<g mask="url(#mask1_9_3183)">
<path fill-rule="evenodd" clip-rule="evenodd" d="M18.1612 31.3395H17.6982V39.8446H18.1612V36.2985H18.1859C18.5508 37.3091 19.428 37.7487 20.4645 37.7487C22.377 37.7487 23.2789 36.3838 23.2789 34.4827C23.2789 32.7157 22.3891 31.1928 20.4645 31.1928C19.0877 31.1928 18.3806 32.1566 18.1859 32.777H18.1612V31.3395ZM20.4645 37.3464C18.6975 37.3464 18.1732 35.9702 18.1732 34.4827C18.1732 32.9971 18.7949 31.5956 20.4645 31.5956C22.1449 31.5956 22.8153 33.0572 22.8153 34.4827C22.8153 36.0303 22.0969 37.3464 20.4645 37.3464Z" fill="#231F20"/>
</g>
<path fill-rule="evenodd" clip-rule="evenodd" d="M26.0274 30.1582V28.9035H25.5645V30.1582H26.0274ZM26.0274 37.6021V31.3396H25.5645V37.6021H26.0274Z" fill="#231F20"/>
<path d="M29.0606 31.3401H28.5977V37.6026H29.0606V34.1792C29.1093 33.2419 29.3041 32.8504 29.7677 32.3767C30.328 31.8271 31.0104 31.7057 31.4974 31.7677V31.3035C30.3647 31.2548 29.3414 31.9125 29.0973 32.729H29.0606V31.3401Z" fill="#231F20"/>
<path fill-rule="evenodd" clip-rule="evenodd" d="M33.2603 34.1306C33.3577 32.8878 34.1742 31.5957 35.563 31.5957C37.0012 31.5957 37.8297 32.8145 37.8537 34.1306H33.2603ZM38.3167 34.5315C38.402 32.7398 37.5248 31.1929 35.563 31.1929C33.6745 31.1929 32.7733 32.8631 32.7973 34.5802C32.7733 36.31 33.7359 37.7488 35.563 37.7488C37.0499 37.7488 38.0245 36.9456 38.268 35.4821H37.805C37.5862 36.6401 36.745 37.3465 35.563 37.3465C34.0161 37.3465 33.2356 36.0064 33.2603 34.5315H38.3167Z" fill="#231F20"/>
<path fill-rule="evenodd" clip-rule="evenodd" d="M45.3286 37.6021H45.7909V28.9035H45.3286V32.7399H45.3046C44.9751 31.7539 44.0125 31.1929 42.9892 31.1929C41.1001 31.1929 40.1982 32.6317 40.1982 34.4829C40.1982 36.2126 41.0147 37.7488 42.9038 37.7488C44.0245 37.7488 44.7923 37.2492 45.3046 36.2619H45.3286V37.6021ZM43.0012 37.3466C41.3929 37.3466 40.6618 35.9577 40.6618 34.4829C40.6618 32.9726 41.3322 31.5958 42.9892 31.5958C44.5975 31.5958 45.316 33.0213 45.316 34.4829C45.316 35.9223 44.5849 37.3466 43.0012 37.3466Z" fill="#231F20"/>
<path fill-rule="evenodd" clip-rule="evenodd" d="M53.6821 32.9601C53.6821 31.6326 52.3913 31.133 51.16 31.133C49.7711 31.133 48.3943 31.6086 48.2975 33.2289H49.6864C49.7471 32.5465 50.2948 32.229 51.0752 32.229C51.6356 32.229 52.3787 32.3637 52.3787 33.0815C52.3787 33.8999 51.4901 33.788 50.4908 33.9726C49.3208 34.1067 48.0654 34.3616 48.0654 35.9332C48.0654 37.1639 49.0887 37.7736 50.2221 37.7736C50.9664 37.7736 51.8544 37.5421 52.4033 37.0052C52.5128 37.5782 52.915 37.7736 53.4753 37.7736C53.7062 37.7736 54.1457 37.6876 54.3525 37.6149V36.6529C54.2058 36.6769 54.097 36.6769 54.0123 36.6769C53.7555 36.6769 53.6821 36.5435 53.6821 36.202V32.9601ZM52.2933 35.4823C52.2933 36.3607 51.3434 36.6769 50.7337 36.6769C50.2467 36.6769 49.4543 36.4948 49.4543 35.8718C49.4543 35.1407 49.9899 34.9232 50.5876 34.8245C51.1973 34.7145 51.867 34.7271 52.2933 34.4476V35.4823Z" fill="#231F20"/>
<path d="M60.94 33.411C60.8059 31.8641 59.5626 31.133 58.1003 31.133C56.0291 31.133 54.9932 32.6192 54.9932 34.5203C54.9932 36.3715 56.0772 37.7736 58.0517 37.7736C59.6726 37.7736 60.6839 36.8711 60.94 35.2381H59.5505C59.4165 36.1406 58.8567 36.6769 58.0517 36.6769C56.8456 36.6769 56.3833 35.5676 56.3833 34.5203C56.3833 32.6078 57.3933 32.229 58.113 32.229C58.8808 32.229 59.4411 32.6432 59.5505 33.411H60.94Z" fill="#231F20"/>
<path d="M67.8313 33.411C67.6972 31.8641 66.4545 31.133 64.9923 31.133C62.9217 31.133 61.8857 32.6192 61.8857 34.5203C61.8857 36.3715 62.9704 37.7736 64.9436 37.7736C66.5645 37.7736 67.5758 36.8711 67.8313 35.2381H66.4431C66.3084 36.1406 65.7481 36.6769 64.9436 36.6769C63.7375 36.6769 63.274 35.5676 63.274 34.5203C63.274 32.6078 64.2859 32.229 65.0049 32.229C65.7734 32.229 66.3331 32.6432 66.4431 33.411H67.8313Z" fill="#231F20"/>
<path fill-rule="evenodd" clip-rule="evenodd" d="M70.1665 33.8999C70.2025 32.9601 70.8596 32.229 71.8222 32.229C72.7614 32.229 73.3584 33.0214 73.4071 33.8999H70.1665ZM74.7959 34.8131C75.0274 32.9247 73.8093 31.133 71.8222 31.133C69.9464 31.133 68.7764 32.6673 68.7764 34.459C68.7764 36.3961 69.8857 37.7736 71.8589 37.7736C73.2357 37.7736 74.4057 37.0052 74.7099 35.6296H73.3951C73.151 36.3234 72.6634 36.6769 71.8589 36.6769C70.7015 36.6769 70.1665 35.7991 70.1665 34.8131H74.7959Z" fill="#231F20"/>
<path d="M75.6328 35.5797C75.6568 37.0672 76.8389 37.7736 78.4231 37.7736C79.726 37.7736 81.2375 37.2253 81.2375 35.7264C81.2375 34.483 80.2136 34.1181 79.2029 33.8866C78.179 33.6551 77.1557 33.5571 77.1557 32.876C77.1557 32.3264 77.8995 32.229 78.3011 32.229C78.9101 32.229 79.4585 32.4124 79.5799 33.0701H81.0301C80.8599 31.6686 79.6899 31.133 78.3985 31.133C77.2525 31.133 75.7669 31.5586 75.7669 32.9361C75.7669 34.2149 76.7655 34.5804 77.7894 34.7999C78.8007 35.0313 79.8114 35.1167 79.8487 35.8472C79.8847 36.5675 78.9715 36.6769 78.4472 36.6769C77.7041 36.6769 77.095 36.3841 77.0217 35.5797H75.6328Z" fill="#231F20"/>
<path d="M82.0723 35.5797C82.0969 37.0672 83.279 37.7736 84.8626 37.7736C86.1667 37.7736 87.6776 37.2253 87.6776 35.7264C87.6776 34.483 86.6543 34.1181 85.6418 33.8866C84.6197 33.6551 83.5952 33.5571 83.5952 32.876C83.5952 32.3264 84.3389 32.229 84.7405 32.229C85.3502 32.229 85.8985 32.4124 86.0206 33.0701H87.4708C87.3 31.6686 86.1306 31.133 84.8386 31.133C83.6932 31.133 82.207 31.5586 82.207 32.9361C82.207 34.2149 83.2062 34.5804 84.2289 34.7999C85.2402 35.0313 86.2521 35.1167 86.2888 35.8472C86.3254 36.5675 85.4109 36.6769 84.8873 36.6769C84.1441 36.6769 83.5345 36.3841 83.4624 35.5797H82.0723Z" fill="#231F20"/>
</g>
<defs>
<clipPath id="clip0_9_3183">
<rect width="87.6246" height="39.8448" fill="white" transform="translate(0.178711)"/>
</clipPath>
</defs>
</svg>
