<svg width="143" height="49" viewBox="0 0 143 49" fill="none" xmlns="http://www.w3.org/2000/svg">
<g clip-path="url(#clip0_9_3144)">
<path d="M141.342 3.50302C139.949 1.45794 137.648 0.213967 134.859 0.00249192H12.6237C11.126 3.97884e-06 9.57598 0.977765 8.85448 2.37599L8.80721 2.46555L1.11449 21.4709C-0.231484 24.7799 -0.122015 27.957 1.42051 30.4201C2.81624 32.6418 5.21213 33.9728 8.18024 34.1669H130.241C131.734 34.1669 133.284 33.1891 134.005 31.7959L134.063 31.6889L142.138 11.7655L142.198 11.5913C143.136 8.57096 142.833 5.69988 141.342 3.508V3.50302Z" fill="url(#paint0_linear_9_3144)"/>
<path d="M140.623 3.99317C139.382 2.16951 137.312 1.06238 134.794 0.870804H12.6237C11.4618 0.870804 10.198 1.66943 9.62822 2.77905L9.59836 2.83877L9.57099 2.90096L1.92057 21.7994C0.684068 24.8396 0.768658 27.7406 2.15693 29.9573C3.39841 31.9352 5.55048 33.122 8.22253 33.2961H130.239C131.403 33.2961 132.662 32.495 133.234 31.3879L133.264 31.3282L133.286 31.2685L141.325 11.4446L141.347 11.3898L141.365 11.3301C142.223 8.56601 141.957 5.96113 140.621 3.99317H140.623Z" fill="url(#paint1_linear_9_3144)"/>
<path d="M33.7861 17.2141C33.8359 13.7857 36.0676 12.9871 37.5529 12.9871H42.7253L43.718 10.4991C43.9145 9.91448 43.6085 9.44426 43.0114 9.44426H35.7168C34.1369 9.44426 28.4619 10.2205 28.4122 17.2738C28.3624 24.3321 34.1369 24.9864 35.7168 24.9864H44.1111V21.4436H37.5504C36.0651 21.4436 33.8334 20.645 33.7836 17.2141H33.7861ZM57.847 15.0869H51.4207V9.44924H46.3328V24.9914H51.3983V18.7069H57.7972V24.9889H62.8129V9.44924H57.847V15.0869ZM76.9469 21.4486H71.0406C70.4957 21.4486 70.5206 21.0132 70.5206 21.0132V9.44924H65.48C65.48 9.44924 65.4875 19.411 65.48 22.0133C65.48 25.4119 68.8263 24.9914 68.9706 24.9914H76.6334L77.6187 22.5234C77.8252 21.9337 77.5366 21.461 76.9494 21.4486H76.9469ZM106.989 15.7885L106.143 17.9033C105.954 18.4854 106.255 18.9457 106.849 18.9457H109.392V21.4436H106.083C104.598 21.4436 102.366 20.645 102.316 17.2141C102.366 13.7857 104.598 12.9871 106.083 12.9871H113.49L114.495 10.4668C114.669 9.89458 114.368 9.44924 113.778 9.44924H113.4H104.252C102.67 9.44675 96.9948 10.2205 96.945 17.2763C96.8952 24.3346 102.672 24.9889 104.252 24.9889H114.878L114.851 15.786H106.986L106.989 15.7885ZM90.8346 9.45421H84.8909C84.5327 9.45421 84.3336 9.51144 84.0998 9.99907L78.1387 24.9839H83.3285L87.8665 13.4623L89.9539 18.7492H87.3391L86.3812 21.1251C86.1523 21.7347 86.4534 22.2223 87.0704 22.2223H91.2874L92.407 24.9815H97.5894L91.6109 9.94185C91.377 9.45421 91.1954 9.45421 90.8371 9.45421H90.8346ZM140.623 4.00065C139.382 2.17699 137.312 1.06985 134.794 0.878281H12.6237C11.4618 0.878281 10.198 1.67691 9.62822 2.78653L9.59836 2.84624L9.57099 2.90844L1.92057 21.7994C0.684068 24.8396 0.768658 27.7406 2.15693 29.9573C3.39841 31.9353 5.55048 33.122 8.22253 33.2962H130.239C131.403 33.2962 132.662 32.495 133.234 31.3879L133.264 31.3282L133.286 31.2685L141.325 11.4446L141.347 11.3898L141.365 11.3301C142.223 8.56602 141.957 5.96114 140.621 3.99318L140.623 4.00065ZM139.996 10.9146L135.578 21.8168H123.414C122.655 21.8168 122.354 21.6601 122.354 20.9386L122.364 18.8089H129.375L130.179 16.7936L130.186 16.7737C130.423 16.1891 130.171 15.7064 129.627 15.6467H122.362L122.352 13.5245C122.352 12.803 122.653 12.6462 123.412 12.6462H131.512V9.43929L120.847 9.45421C118.909 9.59105 117.359 11.1261 117.199 13.0568L117.204 21.0605C117.204 23.2374 118.973 25.0014 121.148 25.0014H133.207C133.729 25.0138 134.015 25.382 133.931 25.8746L131.96 30.7361C131.637 31.3605 130.866 31.8706 130.236 31.8706H8.31458C4.33637 31.6143 2.09971 28.7855 2.54505 24.9889H22.665C24.1404 24.9889 27.1682 23.7972 27.1682 20.1598C27.1682 16.5225 24.2125 15.3083 22.665 15.3083H16.0645C15.2783 15.3083 14.6364 14.7734 14.6364 14.1315C14.6364 13.4897 15.2758 12.9647 16.0645 12.9647L24.9738 12.9821L25.9466 10.539C26.1755 9.92941 25.872 9.44426 25.2575 9.44426C25.2575 9.44426 14.313 9.43929 13.9572 9.43929C12.4794 9.43929 9.45157 10.6335 9.45157 14.2684C9.45157 17.9033 12.4072 19.1199 13.9572 19.1199H20.5553C21.3414 19.1199 21.9808 19.6548 21.9808 20.2967C21.9808 20.9386 21.3414 21.466 20.5553 21.466H4.73692C4.13733 21.466 3.83878 20.9908 4.03284 20.4012L10.8946 3.43837C11.2205 2.81141 11.9893 2.30387 12.6187 2.30387H134.682C139.188 2.64223 141.427 6.29453 139.996 10.9072V10.9146Z" fill="white"/>
<path d="M130.469 25.8025C131.392 25.8025 132.126 26.5538 132.126 27.4893C132.126 28.4247 131.392 29.1836 130.462 29.1836C129.531 29.1836 128.79 28.4422 128.79 27.4893C128.79 26.5364 129.539 25.8025 130.462 25.8025H130.469ZM130.462 26.0637C129.718 26.0637 129.113 26.7006 129.113 27.4893C129.113 28.278 129.721 28.9223 130.469 28.9223C131.218 28.9298 131.818 28.2904 131.818 27.4967C131.818 26.7031 131.218 26.0662 130.469 26.0662H130.462V26.0637ZM130.146 28.472H129.845V26.5887C130.002 26.5663 130.153 26.5439 130.377 26.5439C130.661 26.5439 130.85 26.6036 130.962 26.6857C131.074 26.7678 131.134 26.8972 131.134 27.0763C131.134 27.3251 130.969 27.4719 130.768 27.5341V27.549C130.932 27.5789 131.044 27.7281 131.084 28.0068C131.129 28.3004 131.173 28.4123 131.203 28.472H130.887C130.843 28.4123 130.798 28.2382 130.76 27.9918C130.716 27.753 130.596 27.6634 130.355 27.6634H130.146V28.472ZM130.146 27.4296H130.362C130.611 27.4296 130.82 27.34 130.82 27.1061C130.82 26.9419 130.701 26.7777 130.362 26.7777C130.265 26.7777 130.198 26.7852 130.146 26.7927V27.4296Z" fill="white"/>
<path d="M17.1185 46.6713H17.4668C17.5787 46.6713 17.7305 46.517 17.7479 46.415L18.6436 42.494H17.9271L17.5265 43.6783H16.5537L17.0389 41.5635H22.3133L21.8281 43.6783H20.8554L20.9922 42.494H20.2682L19.3725 46.415C19.3477 46.517 19.3974 46.6713 19.5094 46.6713H19.8851L19.6985 47.5321H16.9194L17.116 46.6713H17.1185Z" fill="#133C64"/>
<path d="M21.8139 47.2609L22.5205 44.1833C22.5379 44.0988 22.4682 43.9619 22.3762 43.9619H22.1125L22.2916 43.1683C22.5553 43.0737 22.8116 42.9966 23.3316 42.9966C23.8515 42.9966 24.1078 43.2703 24.0804 43.8226C24.3964 43.3374 24.8144 43.0041 25.3667 43.0041C25.4513 43.0041 25.5533 43.0215 25.6304 43.0464L25.3567 44.2232H25.1776C24.5979 44.2232 24.1974 44.4371 23.9336 44.6312L23.2694 47.5296H21.9906C21.8637 47.5296 21.7766 47.4102 21.8114 47.256L21.8139 47.2609Z" fill="#133C64"/>
<path d="M28.2293 46.8504C27.7615 47.3107 27.249 47.5993 26.6444 47.5993C25.8607 47.5993 25.5199 47.0619 25.699 46.2607L26.1767 44.1808C26.1941 44.0962 26.1344 43.9594 26.0399 43.9594H25.7836L25.9627 43.1658C26.2265 43.0712 26.5325 42.9866 26.9853 42.9866C27.6421 42.9866 27.881 43.4295 27.7267 44.0515L27.2739 46.0194C27.2142 46.3105 27.2913 46.5046 27.6147 46.5046C27.8287 46.5046 28.0576 46.42 28.3213 46.2583L29.0627 43.0463H30.3415C30.4784 43.0463 30.5555 43.1657 30.5207 43.32L29.7967 46.4573C29.7718 46.5518 29.8564 46.6713 29.9509 46.6713H30.1898L30.028 47.4201C29.7992 47.5321 29.4658 47.5993 29.1075 47.5993C28.5104 47.5993 28.2118 47.3778 28.2293 46.8504Z" fill="#133C64"/>
<path d="M30.4609 47.2335L30.6898 46.2458H31.4312C31.5432 46.527 31.7049 46.7136 32.1378 46.7136C32.4787 46.7136 32.7697 46.5767 32.7697 46.2707C32.7697 45.9896 32.4637 45.9224 32.0706 45.7856C31.5084 45.589 31.0904 45.2656 31.0904 44.5764C31.0904 43.5016 31.899 42.9916 33.0335 42.9916C33.852 42.9916 34.27 43.1359 34.6282 43.2976L34.3993 44.3028H33.6654C33.5534 44.0216 33.3594 43.8599 32.9837 43.8599C32.5757 43.8599 32.3966 44.0142 32.3966 44.2779C32.3966 44.5242 32.6429 44.6262 33.0434 44.763C33.6579 44.977 34.1779 45.2581 34.1779 46.007C34.1779 47.0295 33.4116 47.5918 32.1925 47.5918C31.2048 47.5918 30.7446 47.3878 30.4634 47.2335H30.4609Z" fill="#133C64"/>
<path d="M35.1387 43.0513H35.599L35.8727 41.867H37.3903L37.1167 43.0513H37.8581L37.6541 43.9644H36.9052L36.4275 46.0791C36.333 46.4622 36.4524 46.6762 36.8803 46.6762H37.0769L36.8903 47.4947C36.6862 47.5619 36.4648 47.6142 36.124 47.6142C35.0915 47.6142 34.676 47.0867 34.9049 46.1139L35.4 43.9668H34.9397L35.1437 43.0538L35.1387 43.0513Z" fill="#133C64"/>
<path d="M40.3036 48.4029C40.7987 48.2486 41.2067 47.9351 41.5401 47.4226L40.0324 43.9196C39.9652 43.7579 39.8532 43.6459 39.7164 43.6459H39.5547V43.0662H41.5326V43.6459H40.8758L42.0178 46.3901L42.9383 44.141C43.0577 43.8499 43.0403 43.6459 42.7243 43.6459H42.5029V43.0662H44.3266V43.6459H44.13C43.9932 43.6459 43.8738 43.7579 43.7966 43.9271L42.381 47.1912C41.973 48.1367 41.5127 48.6566 41.0773 48.9129H40.3011V48.4004L40.3036 48.4029Z" fill="#133C64"/>
<path d="M44.418 45.3178C44.418 43.8872 45.4156 43.0165 46.6944 43.0165C47.9732 43.0165 48.9709 43.8848 48.9709 45.3178C48.9709 46.7509 47.9832 47.5843 46.6944 47.5843C45.4057 47.5843 44.418 46.7334 44.418 45.3178ZM48.0155 45.3253C48.0155 44.2181 47.4707 43.6384 46.6944 43.6384C45.9182 43.6384 45.3733 44.2181 45.3733 45.3253C45.3733 46.4324 45.9182 46.9872 46.6944 46.9872C47.4707 46.9872 48.0155 46.4175 48.0155 45.3253Z" fill="#133C64"/>
<path d="M49.7615 46.4847V43.8773C49.7615 43.7653 49.6421 43.6484 49.5326 43.6484H49.1992V43.0687H50.682V46.1961C50.682 46.7758 50.9806 46.9201 51.3986 46.9201C51.8588 46.9201 52.3116 46.716 52.6674 46.4772V43.6484H52.028V43.0687H53.5879V46.7509C53.5879 46.8628 53.7074 46.9897 53.8268 46.9897H54.1676V47.5346H52.8814C52.762 47.5346 52.6774 47.4326 52.6774 47.0146V46.9026C52.2171 47.3107 51.6797 47.5943 50.9557 47.5943C50.3337 47.5943 49.7615 47.348 49.7615 46.4872V46.4847Z" fill="#133C64"/>
<path d="M54.6612 46.9872H54.9946C55.1066 46.9872 55.2235 46.8678 55.2235 46.7584V43.8873C55.2235 43.7853 55.1041 43.6484 54.9946 43.6484H54.6289V43.0687H55.9326C56.0595 43.0687 56.1465 43.1807 56.1465 43.6658V43.8101C56.4625 43.4096 56.8531 43.0339 57.4751 43.0339C57.5771 43.0339 57.6617 43.0513 57.7314 43.0687V43.8276H57.5522C56.8705 43.8276 56.4774 43.9893 56.1465 44.2804V46.9897H56.8531V47.5346H54.6637V46.9897L54.6612 46.9872Z" fill="#133C64"/>
<path d="M60.9159 46.9873H61.5379V47.5321H59.4331V46.9873H59.7665C59.8784 46.9873 59.9954 46.8678 59.9954 46.7584V42.3696C59.9954 42.2676 59.8759 42.1308 59.7665 42.1308H59.4082V41.5685H60.7467C60.8587 41.5685 60.9184 41.6457 60.9184 41.7974V43.733C61.3612 43.325 61.9832 43.0165 62.6749 43.0165C63.3143 43.0165 63.8417 43.2454 63.8417 44.1236V46.7559C63.8417 46.8753 63.9611 46.9848 64.0631 46.9848H64.3443V47.5296H62.3067V46.9848H62.9212V44.4272C62.9212 43.8724 62.6749 43.7355 62.2221 43.7355C61.7444 43.7355 61.3015 43.9321 60.9184 44.161V46.9823L60.9159 46.9873Z" fill="#133C64"/>
<path d="M64.6055 45.3178C64.6055 43.8872 65.6031 43.0165 66.8819 43.0165C68.1607 43.0165 69.1584 43.8848 69.1584 45.3178C69.1584 46.7509 68.1707 47.5843 66.8819 47.5843C65.5932 47.5843 64.6055 46.7334 64.6055 45.3178ZM68.203 45.3253C68.203 44.2181 67.6582 43.6384 66.8819 43.6384C66.1057 43.6384 65.5608 44.2181 65.5608 45.3253C65.5608 46.4324 66.1057 46.9872 66.8819 46.9872C67.6582 46.9872 68.203 46.4175 68.203 45.3253Z" fill="#133C64"/>
<path d="M69.4366 46.9872H69.77C69.882 46.9872 70.0014 46.8678 70.0014 46.7583V43.8872C70.0014 43.7852 69.882 43.6484 69.77 43.6484H69.4043V43.0687H70.708C70.8349 43.0687 70.9219 43.1956 70.9219 43.6136V43.7405C71.3399 43.3648 71.8848 43.0165 72.5665 43.0165C73.069 43.0165 73.5218 43.1782 73.6487 43.7653C74.1015 43.3648 74.6464 43.0165 75.3355 43.0165C75.9152 43.0165 76.4526 43.2454 76.4526 44.1236V46.7558C76.4526 46.8753 76.5721 46.9847 76.6815 46.9847H76.9627V47.5296H74.925V46.9847H75.5296V44.4097C75.5296 43.8649 75.3082 43.7355 74.8977 43.7355C74.4872 43.7355 74.0543 43.932 73.6885 44.1535V46.9822H74.2508V47.5271H72.1958V46.9822H72.758V44.4072C72.758 43.8624 72.5366 43.733 72.1361 43.733C71.7106 43.733 71.2926 43.9121 70.917 44.151V46.9798H71.5215V47.5246H69.4342V46.9798L69.4366 46.9872Z" fill="#133C64"/>
<path d="M77.207 45.3178C77.207 43.9022 78.0853 43.0165 79.3815 43.0165C80.6777 43.0165 81.3594 43.6733 81.3594 45.1636C81.3594 45.2904 81.3519 45.4099 81.3519 45.4447H78.1724C78.2072 46.4847 78.6575 46.9947 79.5457 46.9947C80.1776 46.9947 80.4662 46.7733 80.6951 46.4921H81.2226V47.1241C80.8743 47.3529 80.3692 47.5843 79.476 47.5843C77.9758 47.5843 77.2095 46.716 77.2095 45.3178H77.207ZM80.4289 44.8924C80.3941 43.947 80.0284 43.5887 79.3815 43.5887C78.7346 43.5887 78.2744 44.0141 78.1873 44.8924H80.4289Z" fill="#133C64"/>
<path d="M83.6235 46.4772V43.6484H83.0537V43.0687H83.6235V41.867H84.544V43.0687H85.5591V43.6484H84.544V46.3752C84.544 46.8777 84.7157 46.9897 85.166 46.9897H85.6188V47.4848C85.4571 47.5445 85.1933 47.5967 84.8774 47.5967C84.0837 47.5967 83.6235 47.3156 83.6235 46.4797V46.4772Z" fill="#133C64"/>
<path d="M85.8477 45.3178C85.8477 43.8872 86.8453 43.0165 88.1241 43.0165C89.4029 43.0165 90.4006 43.8848 90.4006 45.3178C90.4006 46.7509 89.4129 47.5843 88.1241 47.5843C86.8354 47.5843 85.8477 46.7334 85.8477 45.3178ZM89.4452 45.3253C89.4452 44.2181 88.9004 43.6384 88.1241 43.6384C87.3479 43.6384 86.803 44.2181 86.803 45.3253C86.803 46.4324 87.3479 46.9872 88.1241 46.9872C88.9004 46.9872 89.4452 46.4175 89.4452 45.3253Z" fill="#133C64"/>
<path d="M92.9876 47.3107C92.9279 47.3107 92.8757 47.4052 92.8607 47.5321H92.2139V45.793H92.8881L92.9727 46.517C93.2712 46.8056 93.5773 46.9698 94.2167 46.9698C94.8984 46.9698 95.3512 46.6538 95.3512 45.997C95.3512 45.1884 94.7541 45.0939 93.8858 44.8551C92.8383 44.5665 92.3184 44.1311 92.3184 43.116C92.3184 42.0412 93.112 41.5063 94.2092 41.5063C94.8138 41.5063 95.1123 41.668 95.284 41.7526C95.3437 41.7526 95.4034 41.6506 95.4109 41.566H96.0329V43.1434H95.376L95.2914 42.5462C95.0775 42.3422 94.7889 42.1382 94.2092 42.1382C93.5872 42.1382 93.1618 42.3771 93.1618 43.0239C93.1618 43.723 93.7066 43.8425 94.5252 44.0639C95.6671 44.3699 96.2468 44.7381 96.2468 45.8353C96.2468 46.9325 95.5477 47.5918 94.2366 47.5918C93.5623 47.5918 93.2215 47.4375 92.9926 47.3107H92.9876Z" fill="#133C64"/>
<path d="M96.6861 45.3079C96.6861 43.8748 97.5992 43.0165 98.9874 43.0165C99.7214 43.0165 100.182 43.1284 100.47 43.2553V44.1933H99.8831C99.806 43.7504 99.49 43.6136 98.97 43.6136C98.1515 43.6136 97.6489 44.1758 97.6489 45.3178C97.6489 46.4598 98.0744 46.9872 98.9526 46.9872C99.5746 46.9872 99.8657 46.7235 100.042 46.4747H100.51V47.139C100.211 47.3529 99.7015 47.5818 98.9327 47.5818C97.4424 47.5818 96.6836 46.721 96.6836 45.3054L96.6861 45.3079Z" fill="#133C64"/>
<path d="M102.353 46.9873H102.975V47.5321H100.871V46.9873H101.204C101.316 46.9873 101.433 46.8678 101.433 46.7584V42.3696C101.433 42.2676 101.313 42.1308 101.204 42.1308H100.846V41.5685H102.184C102.296 41.5685 102.356 41.6457 102.356 41.7974V43.733C102.799 43.325 103.421 43.0165 104.112 43.0165C104.752 43.0165 105.279 43.2454 105.279 44.1236V46.7559C105.279 46.8753 105.399 46.9848 105.501 46.9848H105.782V47.5296H103.744V46.9848H104.359V44.4272C104.359 43.8724 104.112 43.7355 103.66 43.7355C103.182 43.7355 102.739 43.9321 102.356 44.161V46.9823L102.353 46.9873Z" fill="#133C64"/>
<path d="M106.095 46.9873H106.419C106.538 46.9873 106.657 46.8678 106.657 46.7584V42.3696C106.657 42.2676 106.538 42.1308 106.419 42.1308H106.07V41.5685H107.409C107.528 41.5685 107.58 41.6457 107.58 41.7974V46.7584C107.58 46.8778 107.7 46.9873 107.809 46.9873H108.143V47.5321H106.098V46.9873H106.095Z" fill="#133C64"/>
<path d="M108.412 46.2558C108.412 45.3352 109.146 44.8998 110.176 44.8998C110.577 44.8998 110.883 44.9421 111.199 45.0193V44.4321C111.199 43.8599 110.865 43.6559 110.295 43.6559C109.726 43.6559 109.375 43.8599 109.136 44.0738H108.711V43.3673C109.094 43.1807 109.639 43.019 110.457 43.019C111.505 43.019 112.119 43.3523 112.119 44.34V46.7185C112.119 46.8902 112.231 46.9922 112.393 46.9922H112.622V47.4525C112.502 47.5296 112.288 47.5893 112.035 47.5893C111.549 47.5893 111.293 47.3928 111.226 46.9847C110.893 47.3928 110.46 47.5893 109.863 47.5893C109.009 47.5893 108.415 47.1464 108.415 46.2607L108.412 46.2558ZM111.199 46.5021V45.5293C110.942 45.477 110.661 45.4447 110.363 45.4447C109.716 45.4447 109.323 45.6736 109.323 46.2284C109.323 46.7832 109.629 46.9947 110.149 46.9947C110.616 46.9947 110.925 46.7907 111.196 46.4996L111.199 46.5021Z" fill="#133C64"/>
<path d="M112.729 47.9426C112.729 47.4226 113.095 47.1415 113.506 46.9375C113.309 46.8355 113.157 46.6314 113.157 46.3329C113.157 45.9746 113.344 45.7184 113.61 45.5069C113.287 45.268 113.09 44.9023 113.09 44.4495C113.09 43.6061 113.737 43.019 114.794 43.019C114.991 43.019 115.178 43.0364 115.349 43.0712H116.884V43.6509H116.501C116.417 43.6509 116.315 43.7181 116.315 43.8051C116.442 43.9843 116.511 44.2057 116.511 44.452C116.511 45.278 115.854 45.8328 114.797 45.8328C114.464 45.8328 114.2 45.7806 113.971 45.6885C113.894 45.8005 113.852 45.9274 113.852 46.0642C113.852 46.2856 113.996 46.3802 114.27 46.3802H115.523C116.409 46.3802 116.879 46.731 116.879 47.4873C116.879 48.3655 116.265 49.0049 114.62 49.0049C113.257 49.0049 112.737 48.5621 112.737 47.9476L112.729 47.9426ZM116.001 47.6789C116.001 47.3306 115.805 47.1763 115.312 47.1763H113.864C113.677 47.3306 113.565 47.4997 113.565 47.756C113.565 48.1565 113.804 48.4128 114.655 48.4128C115.593 48.4128 116.001 48.0968 116.001 47.6789ZM115.653 44.4495C115.653 43.9221 115.347 43.5887 114.792 43.5887C114.237 43.5887 113.939 43.9221 113.939 44.4495C113.939 44.977 114.245 45.2929 114.792 45.2929C115.339 45.2929 115.653 44.9695 115.653 44.4495Z" fill="#133C64"/>
<path d="M117 45.3178C117 43.9022 117.878 43.0165 119.174 43.0165C120.471 43.0165 121.152 43.6733 121.152 45.1636C121.152 45.2904 121.145 45.4099 121.145 45.4447H117.965C118 46.4847 118.45 46.9947 119.339 46.9947C119.971 46.9947 120.259 46.7733 120.488 46.4921H121.016V47.1241C120.667 47.3529 120.165 47.5843 119.269 47.5843C117.769 47.5843 117.002 46.716 117.002 45.3178H117ZM120.222 44.8924C120.187 43.947 119.821 43.5887 119.174 43.5887C118.528 43.5887 118.067 44.0141 117.98 44.8924H120.222Z" fill="#133C64"/>
<path d="M121.465 47.0395C121.465 46.7409 121.704 46.4946 122.02 46.4946C122.336 46.4946 122.574 46.7409 122.574 47.0395C122.574 47.338 122.328 47.5769 122.02 47.5769C121.711 47.5769 121.465 47.338 121.465 47.0395Z" fill="#133C64"/>
</g>
<defs>
<linearGradient id="paint0_linear_9_3144" x1="71.456" y1="0.66926" x2="71.456" y2="33.4703" gradientUnits="userSpaceOnUse">
<stop stop-color="#E6E7E8"/>
<stop offset="0.17" stop-color="#D2D3D5"/>
<stop offset="0.52" stop-color="#B0B1B3"/>
<stop offset="0.81" stop-color="#9A9C9F"/>
<stop offset="1" stop-color="#939598"/>
</linearGradient>
<linearGradient id="paint1_linear_9_3144" x1="71.456" y1="-10.1159" x2="71.456" y2="58.3099" gradientUnits="userSpaceOnUse">
<stop offset="0.19" stop-color="#0081C6"/>
<stop offset="0.71" stop-color="#004F86"/>
<stop offset="1" stop-color="#003767"/>
</linearGradient>
<clipPath id="clip0_9_3144">
<rect width="142.554" height="49" fill="white" transform="translate(0.178711)"/>
</clipPath>
</defs>
</svg>
