<svg width="84" height="42" viewBox="0 0 84 42" fill="none" xmlns="http://www.w3.org/2000/svg">
<g clip-path="url(#clip0_9_3176)">
<path fill-rule="evenodd" clip-rule="evenodd" d="M83.8653 11.0188V40.588C83.8653 41.2854 83.3074 41.8433 82.61 41.8433H11.1974C4.50252 41.8433 0.178711 37.5195 0.178711 30.8246V1.25533C0.178711 0.557941 0.736622 3.05176e-05 1.43401 3.05176e-05H72.8466C79.5415 3.05176e-05 83.8653 4.32384 83.8653 11.0188ZM14.4054 22.3165V18.1321H19.8451C20.9609 18.1321 21.9372 17.2953 21.9372 16.1794C21.9372 15.0636 21.1004 14.2268 19.9845 14.2268H14.5449L14.6844 11.7162C14.6844 10.6003 13.8475 9.76347 12.7317 9.76347C11.7554 9.76347 10.779 10.7398 10.779 11.8556L10.6395 14.3662H8.68685C7.57103 14.3662 6.59468 15.2031 6.59468 16.3189C6.59468 17.4347 7.43155 18.2716 8.54737 18.2716H10.6395L10.5001 22.3165C10.3606 26.6403 13.5686 30.1272 17.8924 30.1272H19.9845C21.1004 30.1272 22.0767 29.2903 22.0767 28.1745C22.0767 27.0587 21.2398 26.2218 20.124 26.2218H18.0319C15.8002 26.2218 14.266 24.4086 14.4054 22.3165ZM38.5351 16.3189C38.5351 15.2031 37.6982 14.3662 36.5824 14.3662C35.4666 14.3662 34.4902 15.2031 34.4902 16.3189L34.3507 22.177C34.2113 24.4086 33.2349 26.0824 31.0033 26.0824C28.7716 26.0824 27.9348 24.2691 27.9348 22.177L28.0742 16.3189C28.0742 15.2031 27.2374 14.3662 26.1216 14.3662C25.0057 14.3662 24.0294 15.2031 24.0294 16.3189L23.8899 22.177C23.7504 26.5008 25.9821 29.9877 30.8638 29.9877C35.7455 29.9877 37.9772 26.5008 38.1166 22.177L38.5351 16.3189ZM54.854 16.4584C54.9934 15.3426 54.1566 14.5057 53.0408 14.5057C51.9249 14.5057 50.9486 15.3426 50.9486 16.4584L50.6696 22.3165C50.5302 24.5481 49.4143 26.2218 47.3222 26.2218C45.23 26.2218 44.2537 24.4086 44.3931 22.3165L44.6721 16.4584C44.8116 15.3426 43.9747 14.5057 42.8589 14.5057C41.7431 14.5057 40.7667 15.3426 40.7667 16.4584L40.4878 22.3165C40.2088 26.6403 42.8589 30.1272 47.1827 30.1272C48.5775 30.1272 49.5538 29.8483 50.3907 29.0114C50.2512 31.1036 48.2985 32.0799 46.2063 32.0799C45.0905 32.0799 44.1142 32.9168 44.1142 34.0326C43.9747 35.1484 44.8116 35.9853 45.9274 35.9853C50.1117 35.9853 53.8776 33.3352 54.1566 29.0114L54.854 16.4584ZM72.1492 21.898C72.2887 17.5742 68.9412 14.0873 64.6174 14.0873C60.2936 14.0873 56.6672 17.7137 56.5277 22.0375C56.3882 26.3613 59.7357 29.7088 64.0595 29.7088C65.1753 29.7088 66.1517 28.8719 66.1517 27.7561C66.1517 26.6403 65.3148 25.8034 64.199 25.8034C61.9673 25.8034 60.2936 23.9902 60.4331 21.898C60.5725 19.6664 62.3858 17.9927 64.4779 17.9927C66.7096 17.9927 68.3833 19.8059 68.2438 21.898L68.1043 27.3377C68.1043 28.4535 68.9412 29.2903 70.057 29.2903C71.1729 29.2903 72.1492 28.4535 72.1492 27.3377V21.898ZM73.8229 10.4609C72.7071 9.62399 71.0334 9.34504 69.6386 10.0424H69.4991C68.9412 10.4609 68.6623 11.1582 68.9412 11.7162C69.2202 12.4135 69.9176 12.6925 70.6149 12.4135C71.1729 12.1346 71.7308 12.2741 72.1492 12.553C72.5676 12.832 72.7071 13.3899 72.7071 13.9478C72.5676 14.6452 73.1255 15.2031 73.8229 15.3426H73.9624C74.5203 15.3426 75.0782 14.9241 75.2177 14.2268C75.4967 12.6925 74.7993 11.1582 73.8229 10.4609ZM76.6125 6.13705C74.1019 4.32384 70.8939 4.04488 68.1043 5.30018C67.5464 5.57914 67.2675 6.27653 67.5464 6.97392C67.6859 7.25287 67.9649 7.53183 68.2438 7.6713C68.5228 7.81078 68.9412 7.81078 69.2202 7.6713C71.1729 6.69496 73.4045 6.97391 75.0782 8.22921C76.8914 9.48451 77.7283 11.5767 77.4493 13.6688C77.4493 14.0873 77.5888 14.3662 77.7283 14.6452C77.8678 14.9241 78.1467 15.2031 78.5652 15.2031H78.7047C79.2626 15.2031 79.8205 14.7847 79.9599 14.0873C80.2389 11.0188 78.9836 7.95026 76.6125 6.13705Z" fill="#FF4800"/>
</g>
<defs>
<clipPath id="clip0_9_3176">
<rect width="83.6866" height="41.8433" fill="white" transform="translate(0.178711)"/>
</clipPath>
</defs>
</svg>
