<svg width="60" height="59" viewBox="0 0 60 59" fill="none" xmlns="http://www.w3.org/2000/svg">
<g filter="url(#filter0_d_9_251)">
<mask id="path-1-inside-1_9_251" fill="white">
<path fill-rule="evenodd" clip-rule="evenodd" d="M35.1432 14.8036C35.1432 11.9153 32.8018 9.57385 29.9135 9.57385C27.0252 9.57385 24.6838 11.9153 24.6838 14.8036L24.6838 24.5158H14.9719C12.0836 24.5158 9.74219 26.8573 9.74219 29.7455C9.74219 32.6338 12.0836 34.9753 14.9719 34.9753H24.6838L24.6838 44.6876C24.6838 47.5759 27.0252 49.9173 29.9135 49.9173C32.8018 49.9173 35.1432 47.5759 35.1432 44.6876V34.9753H44.8559C47.7442 34.9753 50.0856 32.6338 50.0856 29.7455C50.0856 26.8573 47.7442 24.5158 44.8559 24.5158H35.1432V14.8036Z"/>
</mask>
<path fill-rule="evenodd" clip-rule="evenodd" d="M35.1432 14.8036C35.1432 11.9153 32.8018 9.57385 29.9135 9.57385C27.0252 9.57385 24.6838 11.9153 24.6838 14.8036L24.6838 24.5158H14.9719C12.0836 24.5158 9.74219 26.8573 9.74219 29.7455C9.74219 32.6338 12.0836 34.9753 14.9719 34.9753H24.6838L24.6838 44.6876C24.6838 47.5759 27.0252 49.9173 29.9135 49.9173C32.8018 49.9173 35.1432 47.5759 35.1432 44.6876V34.9753H44.8559C47.7442 34.9753 50.0856 32.6338 50.0856 29.7455C50.0856 26.8573 47.7442 24.5158 44.8559 24.5158H35.1432V14.8036Z" fill="url(#paint0_linear_9_251)"/>
<path d="M29.9135 9.57385V11.0681V9.57385ZM24.6838 14.8036H26.178H24.6838ZM24.6838 24.5158V26.01H26.178V24.5158H24.6838ZM24.6838 34.9753H26.178V33.4811H24.6838V34.9753ZM24.6838 44.6876H23.1896H24.6838ZM35.1432 34.9753V33.4811H33.649V34.9753H35.1432ZM35.1432 24.5158H33.649V26.01H35.1432V24.5158ZM29.9135 11.0681C31.9765 11.0681 33.649 12.7405 33.649 14.8036H36.6374C36.6374 11.09 33.627 8.07965 29.9135 8.07965V11.0681ZM26.178 14.8036C26.178 12.7405 27.8504 11.0681 29.9135 11.0681V8.07965C26.2 8.07965 23.1896 11.09 23.1896 14.8036H26.178ZM26.178 24.5158L26.178 14.8036L23.1896 14.8036L23.1896 24.5158H26.178ZM14.9719 26.01H24.6838V23.0216H14.9719V26.01ZM11.2364 29.7455C11.2364 27.6825 12.9088 26.01 14.9719 26.01V23.0216C11.2584 23.0216 8.24799 26.032 8.24799 29.7455H11.2364ZM14.9719 33.4811C12.9088 33.4811 11.2364 31.8086 11.2364 29.7455H8.24799C8.24799 33.4591 11.2584 36.4695 14.9719 36.4695V33.4811ZM24.6838 33.4811H14.9719V36.4695H24.6838V33.4811ZM26.178 44.6876V34.9753H23.1896L23.1896 44.6876H26.178ZM29.9135 48.4231C27.8504 48.4231 26.178 46.7507 26.178 44.6876H23.1896C23.1896 48.4011 26.2 51.4115 29.9135 51.4115V48.4231ZM33.649 44.6876C33.649 46.7507 31.9765 48.4231 29.9135 48.4231V51.4115C33.627 51.4115 36.6374 48.4011 36.6374 44.6876H33.649ZM33.649 34.9753V44.6876H36.6374V34.9753H33.649ZM44.8559 33.4811H35.1432V36.4695H44.8559V33.4811ZM48.5914 29.7455C48.5914 31.8086 46.919 33.4811 44.8559 33.4811V36.4695C48.5694 36.4695 51.5798 33.4591 51.5798 29.7455H48.5914ZM44.8559 26.01C46.919 26.01 48.5914 27.6825 48.5914 29.7455H51.5798C51.5798 26.032 48.5695 23.0216 44.8559 23.0216V26.01ZM35.1432 26.01H44.8559V23.0216H35.1432V26.01ZM33.649 14.8036V24.5158H36.6374V14.8036H33.649Z" fill="white" mask="url(#path-1-inside-1_9_251)"/>
</g>
<defs>
<filter id="filter0_d_9_251" x="0.776977" y="0.608642" width="58.2742" height="58.2739" filterUnits="userSpaceOnUse" color-interpolation-filters="sRGB">
<feFlood flood-opacity="0" result="BackgroundImageFix"/>
<feColorMatrix in="SourceAlpha" type="matrix" values="0 0 0 0 0 0 0 0 0 0 0 0 0 0 0 0 0 0 127 0" result="hardAlpha"/>
<feOffset/>
<feGaussianBlur stdDeviation="4.48261"/>
<feComposite in2="hardAlpha" operator="out"/>
<feColorMatrix type="matrix" values="0 0 0 0 0 0 0 0 0 0 0 0 0 0 0 0 0 0 0.22 0"/>
<feBlend mode="normal" in2="BackgroundImageFix" result="effect1_dropShadow_9_251"/>
<feBlend mode="normal" in="SourceGraphic" in2="effect1_dropShadow_9_251" result="shape"/>
</filter>
<linearGradient id="paint0_linear_9_251" x1="45.603" y1="14.8036" x2="17.9603" y2="43.1934" gradientUnits="userSpaceOnUse">
<stop stop-color="#A7292E"/>
<stop offset="0.96" stop-color="#D42E2B"/>
</linearGradient>
</defs>
</svg>
